<svg width="500" height="500" viewBox="0 0 500 500" fill="none" xmlns="http://www.w3.org/2000/svg">
<g clip-path="url(#clip0)">
<rect width="500" height="500" fill="#212121"/>
<g clip-path="url(#clip1)">
<path d="M266.058 51.4407C265.926 52.6854 265.402 53.0129 263.239 53.1439C261.796 53.2749 260.223 53.668 259.764 54.061C259.305 54.4541 257.863 54.9126 256.552 55.0437C255.175 55.1747 253.602 55.6987 253.012 56.2228C252.488 56.7469 251.242 57.2054 250.324 57.2054C249.406 57.2054 248.292 57.664 247.833 58.1881C247.374 58.7121 246.325 59.1707 245.539 59.1707C244.752 59.1707 243.638 59.6947 243.179 60.2843C241.343 62.5116 237.082 65.0664 235.246 65.0664C234.263 65.0664 233.411 65.263 233.411 65.5905C233.411 66.1146 228.756 68.6039 226.659 69.259C226.069 69.4555 224.954 70.5691 224.233 71.7483C223.512 72.9274 221.939 74.7617 220.628 75.7443C219.382 76.7269 218.333 77.9716 218.333 78.4301C218.333 79.4783 216.563 81.509 214.269 82.9502C213.22 83.6053 211.974 85.1775 211.45 86.4877C210.86 87.8633 209.942 89.4355 209.286 90.0251C203.845 95.2003 202.01 98.0826 200.961 102.668C200.633 104.306 198.404 108.105 197.224 108.957C196.7 109.35 196.503 110.726 196.634 113.019C196.7 115.639 198.666 115.508 198.666 112.953C198.666 111.774 199.322 110.267 200.305 109.219C202.469 106.861 202.534 108.498 200.371 113.084C199.453 114.984 198.535 117.342 198.273 118.456C198.011 119.504 197.552 120.749 197.224 121.207C196.306 122.386 195.323 126.251 194.471 132.54C193.815 137.126 193.488 138.108 192.57 138.043C191.783 137.977 191.455 138.436 191.455 139.68C191.455 140.663 190.996 142.039 190.472 142.89C189.03 144.856 189.292 156.451 190.8 156.451C192.111 156.451 193.225 152.782 193.881 146.297C194.34 141.449 194.536 140.925 195.192 142.17C196.438 144.266 197.028 154.223 196.11 156.058C195.651 156.909 195.258 159.857 195.258 162.674L195.192 167.849L192.242 168.308C190.21 168.635 189.161 168.504 188.833 167.915C188.309 167.063 186.866 167.522 186.866 168.57C186.866 168.897 187.325 169.618 187.915 170.207C188.964 171.19 188.899 171.452 187.784 173.614C186.408 176.169 184.9 177.151 184.9 175.514C184.9 174.924 184.441 174.465 183.916 174.465C183.392 174.465 182.933 174.793 182.933 175.186C182.933 175.645 181.95 177.151 180.77 178.658C179 180.754 178.541 181.999 178.475 184.357C178.41 186.06 177.885 188.288 177.361 189.27C176.115 191.76 176.115 192.284 177.689 194.314C178.672 195.494 179 196.804 178.869 198.703C178.672 202.044 179.983 203.42 183.72 203.748C186.735 204.01 188.833 205.713 188.833 208.006C188.833 211.936 191.849 203.879 193.488 195.559C194.209 191.694 194.209 191.367 192.832 189.991C191.062 188.026 191.062 185.078 192.766 179.968C194.864 174.007 197.29 171.845 201.944 171.845C203.255 171.845 204.37 171.124 205.812 169.552C206.926 168.242 207.844 166.932 207.844 166.604C207.844 166.277 209.024 164.901 210.401 163.591C212.302 161.888 212.958 160.774 212.892 159.529C212.761 157.957 212.499 157.761 210.598 157.957C208.565 158.154 208.5 158.088 208.5 155.796C208.5 153.961 208.959 152.979 210.663 151.341C211.909 150.162 213.023 148.786 213.22 148.262C213.482 147.41 214.072 147.41 217.743 148.131C220.038 148.655 222.856 149.572 223.971 150.293C228.101 152.848 232.493 151.21 234.853 146.297C235.64 144.659 237.279 142.235 238.524 140.794C240.556 138.501 240.688 138.043 240.36 135.488C239.77 131.754 242.13 126.317 245.604 123.5C246.981 122.321 248.292 121.404 248.489 121.404C248.685 121.404 249.406 122.321 250.128 123.5C250.849 124.614 251.898 126.251 252.422 127.037C253.274 128.413 253.274 128.675 251.963 129.854C251.242 130.575 249.669 133.13 248.554 135.488C247.44 137.846 246.063 139.942 245.473 140.205C244.949 140.401 242.982 142.825 241.212 145.576C237.738 150.817 237.869 150.293 239.049 157.04C239.442 159.267 239.311 159.333 235.968 161.102C232.821 162.739 231.772 162.87 226.724 162.805C222.922 162.739 220.89 162.936 220.562 163.46C219.841 164.574 219.054 169.225 218.399 175.907C217.94 180.099 217.481 182.064 216.432 183.375C214.99 185.143 214.531 188.222 215.711 188.222C216.039 188.222 217.35 187.764 218.53 187.174C220.628 186.191 221.021 186.191 223.905 187.305C226.2 188.157 227.249 189.008 227.839 190.449C228.822 192.677 228.56 193.594 227.183 193.07C226.593 192.808 226.069 193.397 225.675 194.904C225.348 196.345 224.692 197.131 223.774 197.262C222.988 197.393 222.004 197.917 221.611 198.376C221.021 199.097 220.496 199.162 219.513 198.638C218.464 198.048 217.874 198.376 215.908 200.472C214.662 201.848 212.892 204.534 211.974 206.368C210.729 209.119 210.073 209.84 208.828 209.84H207.254L207.648 216.653C208.041 223.728 207.648 225.431 204.435 229.165C203.845 229.885 203.255 231.065 203.124 231.785C202.731 234.275 207.32 233.161 216.563 228.444C223.971 224.776 225.479 224.252 227.118 224.71C229.674 225.431 230.658 229.23 229.15 232.309C227.445 235.716 227.904 236.24 230.92 234.275C233.411 232.571 234.198 232.44 240.229 232.375C245.276 232.309 248.095 231.916 251.963 230.672L257.076 229.034L257.273 222.483C257.47 215.343 258.519 212.657 261.993 209.905C262.845 209.185 263.566 208.006 263.566 207.089C263.566 206.237 263.96 205.123 264.353 204.73C264.812 204.272 265.664 202.699 266.254 201.193C267.565 197.852 268.352 197.459 269.335 199.686C269.991 201.062 269.925 201.651 269.073 202.962C268.483 203.879 267.565 204.599 267.106 204.599C265.074 204.599 266.516 206.958 268.942 207.547C271.826 208.268 272.416 209.447 271.171 212.067C269.794 214.95 269.86 215.539 271.433 216.522C272.285 217.111 272.744 218.094 272.744 219.47C272.744 220.583 273.072 221.762 273.465 221.959C274.252 222.483 272.285 224.907 271.04 224.907C269.925 224.907 268.09 226.872 268.483 227.593C269.401 228.968 274.711 227.724 274.711 226.086C274.711 224.972 277.923 222.286 279.365 222.286C280.414 222.286 280.611 222.745 280.611 225.3C280.611 226.938 280.873 228.837 281.266 229.492C281.725 230.344 281.594 231.392 280.939 233.03C280.414 234.275 279.955 236.436 279.955 237.746C279.955 239.122 279.496 240.694 278.972 241.284C278.054 242.267 277.661 242.332 275.498 241.611C272.154 240.432 271.368 238.991 273.269 237.681C274.776 236.567 275.235 233.816 273.924 233.03C273.531 232.768 272.875 233.03 272.416 233.619C271.958 234.275 271.04 234.733 270.319 234.733C266.254 234.733 258.322 240.236 258.322 243.053C258.322 244.559 258.519 244.69 260.354 244.297C261.469 244.101 263.108 243.315 264.025 242.594C264.943 241.873 266.451 241.284 267.434 241.284L269.139 241.349L267.565 242.594C266.713 243.315 265.664 243.904 265.205 243.904C264.746 243.904 263.108 244.952 261.665 246.328C259.568 248.228 258.978 249.145 258.978 250.914C258.978 253.534 259.83 253.665 263.632 251.438C266.975 249.538 269.794 249.341 270.384 250.914C270.843 252.093 268.024 256.678 266.451 257.268C265.926 257.464 265.533 258.251 265.533 259.037C265.533 260.281 265.795 260.412 267.828 260.085C269.073 259.888 270.122 259.954 270.122 260.216C270.122 261.395 266.844 263.622 263.829 264.539C259.109 266.046 256.159 267.618 255.372 269.125C255.044 269.911 254.061 271.352 253.34 272.4C252.094 274.104 251.766 274.235 250.783 273.383C249.8 272.597 249.538 272.662 248.489 274.038C247.636 275.152 247.505 275.872 247.899 276.396C248.554 277.182 248.161 277.707 243.441 282.685C242.654 283.537 242.523 284.716 242.72 287.795C242.916 290.743 242.785 291.725 242.13 291.725C241.671 291.725 241.278 291.136 241.278 290.35C241.278 289.564 240.95 289.105 240.491 289.236C239.442 289.629 238.983 292.38 239.901 292.38C240.294 292.38 240.622 292.839 240.622 293.429C240.622 294.149 240.229 294.346 239.311 294.018C237.475 293.429 237.606 295.066 239.639 298.276C241.802 301.683 241.736 302.207 239.114 302.207C236.558 302.207 234.198 300.176 232.493 296.507L231.313 293.887L233.345 289.564C235.115 285.764 235.378 284.519 235.378 279.606C235.378 275.348 235.181 273.973 234.591 274.169C234.132 274.366 233.608 275.938 233.411 277.707C233.214 279.475 232.69 281.506 232.296 282.227C231.838 282.947 231.313 284.585 231.116 285.961C230.92 287.271 230.33 288.515 229.805 288.712C229.281 288.908 228.822 289.76 228.822 290.677C228.822 291.529 228.494 292.38 228.166 292.511C227.773 292.642 227.118 294.149 226.659 295.918C226.265 297.687 225.479 299.259 224.954 299.455C224.364 299.652 224.233 299.324 224.561 298.276C224.954 297.097 224.758 296.901 223.774 297.097C222.988 297.228 222.266 298.342 221.676 300.438C220.89 302.927 220.431 303.517 219.251 303.517C218.464 303.517 217.612 304.041 217.415 304.63C217.022 305.613 216.825 305.613 215.645 304.368C214.662 303.451 214.138 301.617 213.679 298.211C213.154 293.953 212.826 293.167 210.991 291.398C209.68 290.284 208.565 288.45 208.172 286.812C207.844 285.371 207.32 284.192 207.123 284.192C206.861 284.192 204.894 286.354 202.731 288.974C199.978 292.249 198.601 294.542 198.339 296.18C197.618 300.503 197.421 300.766 195.979 298.997C193.619 296.114 194.995 287.074 198.339 283.733C199.125 282.882 200.436 280.982 201.158 279.541C202.469 276.92 204.37 275.414 210.008 272.4C211.778 271.483 213.089 270.042 214.334 267.684C215.383 265.784 216.498 263.884 216.891 263.426C217.219 262.967 217.481 260.281 217.415 257.333C217.219 251.503 217.415 250.455 218.661 250.455C220.038 250.455 221.021 248.817 220.169 247.966C218.726 246.525 217.743 247.18 217.022 249.931C216.563 251.503 215.842 254.189 215.318 255.958C214.793 257.661 214.4 260.085 214.4 261.329C214.4 262.705 213.875 263.95 212.958 264.867C211.122 266.505 209.483 266.636 210.204 264.998C210.466 264.408 210.794 261.198 210.925 257.858C211.122 252.813 210.925 251.569 210.008 250.455C209.352 249.734 208.696 249.145 208.5 249.145C208.238 249.145 208.041 252.813 208.041 257.399C207.975 265.325 207.91 265.653 206.271 267.291C204.96 268.601 204.566 268.732 204.566 267.88C204.566 267.291 204.894 266.832 205.288 266.832C206.861 266.832 205.419 258.644 203.321 255.303C201.223 251.831 201.223 251.11 203.583 251.11C205.353 251.11 206.271 250.128 205.222 249.472C204.042 248.752 200.109 249.734 199.715 250.848C199.519 251.372 199.584 252.289 199.912 252.944C201.551 256.023 203.911 262.509 203.911 263.753C203.845 265.26 201.158 268.797 200.043 268.797C199.715 268.797 199.191 269.387 198.994 270.108C198.732 270.894 197.552 272.466 196.306 273.711C193.422 276.593 187.522 285.175 187.522 286.485C187.522 287.86 188.833 289.105 190.275 289.105C191.586 289.105 191.849 291.07 190.8 293.101C189.751 294.935 189.03 294.608 188.178 291.987C187.653 290.481 187.063 289.76 186.539 290.022C186.014 290.219 184.441 290.677 182.933 291.07C180.442 291.725 180.245 291.922 180.639 293.625C180.901 294.87 180.573 296.442 179.59 298.538C178.148 301.486 178.148 301.617 179.196 304.958C179.786 306.792 180.18 308.495 180.049 308.627C179.852 308.758 179.131 308.561 178.41 308.168C175.525 306.596 174.018 300.634 175.984 298.997C177.361 297.883 177.885 294.673 177.033 293.101C175.919 291.005 175.198 291.463 173.428 295.328C172.051 298.342 171.789 299.521 172.182 302.207C172.444 304.237 172.379 305.482 171.985 305.482C171.133 305.482 166.348 300.307 165.233 298.342C164.84 297.49 163.922 296.311 163.201 295.59C162.086 294.477 161.955 293.756 162.349 290.219C162.611 287.991 163.66 283.93 164.643 281.244C166.872 275.545 166.872 275.152 165.43 273.383C163.66 271.352 163.135 271.811 163.594 274.693C163.922 276.462 163.791 277.707 163.266 278.296C162.152 279.672 157.891 279.541 151.335 278.034C148.32 277.314 144.714 276.855 143.272 276.92C141.83 277.051 138.552 277.117 135.995 277.182L131.341 277.314L129.636 280.785C128.653 282.685 127.866 284.65 127.866 285.175C127.866 285.699 127.473 286.878 127.014 287.86C126.49 288.777 125.9 292.118 125.638 295.328C125.441 298.538 124.916 301.486 124.589 301.814C124.195 302.207 123.933 302.993 123.933 303.648C123.933 304.237 122.753 306.006 121.245 307.578C119.803 309.151 118.164 311.181 117.64 312.164C117.115 313.212 115.28 314.653 113.248 315.636C111.412 316.619 108.986 317.929 107.872 318.584C106.823 319.304 105.446 320.025 104.922 320.287C104.398 320.484 103.152 321.073 102.169 321.597C101.251 322.121 100.005 322.514 99.4154 322.514C98.8254 322.514 98.3665 322.776 98.3665 323.104C98.3665 323.431 97.7109 323.955 96.9243 324.152C94.5643 324.873 89.9098 327.165 89.4509 327.82C89.2543 328.148 88.402 328.41 87.5498 328.41C86.6976 328.41 85.0587 328.934 83.8131 329.524C82.6331 330.113 80.8631 330.965 79.8798 331.489C78.962 331.947 77.2576 332.341 76.1431 332.341C75.0287 332.341 74.1109 332.603 74.1109 332.865C74.1109 333.192 73.3898 333.782 72.472 334.175C71.5543 334.568 70.8331 335.288 70.8331 335.747C70.8331 336.795 68.8665 338.891 64.2776 342.822C59.2298 347.08 59.0987 347.211 58.6398 349.766C58.312 351.534 57.5254 352.583 55.6898 353.893C53.0676 355.727 52.6087 357.103 53.7887 360.247C54.6409 362.409 53.7887 363.523 50.1176 365.095C47.8231 366.143 47.2987 366.732 46.3154 369.549C45.7254 371.384 45.2665 373.283 45.2665 373.807C45.2665 375.249 39.3009 383.11 36.482 385.337C34.7776 386.712 33.2043 387.368 31.762 387.368C30.1887 387.368 29.2709 387.826 28.4187 389.071C27.1076 390.971 25.862 392.281 23.5676 394.246C22.7154 394.967 21.3387 396.932 20.552 398.635C19.7654 400.338 18.5198 402.369 17.7987 403.221C17.0776 404.072 15.3076 406.168 13.8654 408.003C12.3576 409.771 9.5387 413.178 7.57204 415.536C5.60537 417.894 3.96648 419.991 3.96648 420.253C3.96648 420.515 2.65537 422.677 1.01648 425.1C-0.622408 427.459 -1.93352 429.62 -1.93352 429.948C-1.93352 430.276 -2.32685 430.931 -2.8513 431.455C-3.37574 431.913 -4.42463 433.616 -5.14574 435.254C-5.93241 436.826 -7.24352 439.316 -8.09574 440.757C-11.5702 446.849 -13.7335 451.173 -13.7335 451.893C-13.7335 452.352 -14.1924 453.072 -14.7169 453.531C-15.2413 453.99 -15.7002 454.841 -15.7002 455.496C-15.7002 456.151 -16.1591 457.003 -16.6835 457.461C-17.208 457.92 -17.6669 458.968 -17.6669 459.754C-17.6669 460.54 -18.1257 461.589 -18.6502 462.047C-19.1746 462.506 -19.6335 463.685 -19.6335 464.667C-19.6335 465.65 -20.0924 466.829 -20.6169 467.288C-21.1413 467.746 -21.6002 468.794 -21.6002 469.581C-21.6002 470.367 -22.0591 471.415 -22.5835 471.873C-23.108 472.332 -23.5669 473.184 -23.5669 473.773C-23.5669 474.363 -23.8946 475.214 -24.288 475.607C-24.6813 476 -25.2057 478.424 -25.4024 480.979C-25.5991 483.73 -26.058 485.892 -26.5824 486.351C-27.1069 486.744 -27.5002 487.595 -27.5002 488.25C-27.5002 488.906 -27.9591 489.757 -28.4835 490.216C-29.008 490.674 -29.4669 491.984 -29.4669 493.164C-29.4669 494.474 -29.8602 495.456 -30.4502 495.718C-30.9746 495.915 -31.4335 496.57 -31.4335 497.16C-31.4335 497.815 -31.8924 498.863 -32.4824 499.452C-33.0724 500.107 -33.5969 501.418 -33.5969 502.269C-33.5969 503.186 -33.9902 504.3 -34.4491 504.693C-34.9735 505.086 -35.3669 505.938 -35.3669 506.527C-35.3669 507.182 -35.8257 508.23 -36.3502 508.951C-36.8746 509.606 -37.3335 511.047 -37.3335 512.03C-37.3335 513.013 -37.7924 513.995 -38.3169 514.192C-38.8413 514.454 -39.3002 515.109 -39.3002 515.698C-39.3002 516.288 -40.6113 519.432 -42.2502 522.642C-43.8891 525.918 -45.2002 529.324 -45.2002 530.241C-45.2002 531.224 -45.6591 532.338 -46.1835 532.796C-46.708 533.255 -47.1669 534.106 -47.1669 534.761C-47.1669 535.416 -47.6257 536.268 -48.1502 536.727C-48.6746 537.185 -49.1335 538.43 -49.1335 539.478C-49.1335 540.526 -49.5269 541.509 -50.1169 541.705C-50.7069 541.967 -51.1002 542.95 -51.1002 543.998C-51.1002 545.112 -51.4935 546.094 -52.0835 546.291C-52.6735 546.553 -53.0669 547.535 -53.0669 548.911C-53.0669 550.352 -53.4602 551.335 -54.0502 551.531C-54.7057 551.794 -55.0335 552.842 -55.0335 554.479C-55.0335 556.183 -55.4269 557.165 -56.148 557.624C-56.8035 557.951 -57.0657 558.475 -56.8035 558.737C-56.2135 559.393 -54.378 558.344 -53.5913 556.969C-53.3291 556.445 -52.4113 554.479 -51.6246 552.58C-50.838 550.745 -50.0513 549.173 -49.8546 549.173C-49.658 549.173 -49.3957 547.798 -49.2646 546.029C-49.1991 544.26 -48.6746 542.622 -48.1502 542.229C-47.6257 541.836 -47.1669 540.723 -47.1669 539.74C-47.1669 538.757 -46.708 537.84 -46.1835 537.644C-45.6591 537.382 -45.2002 536.661 -45.2002 536.006C-45.2002 534.368 -42.6435 530.831 -41.4635 530.831C-40.9391 530.831 -40.4146 531.289 -40.218 531.813C-39.9557 532.338 -39.5624 532.796 -39.1691 532.796C-38.8413 532.796 -38.7102 532.534 -38.9724 532.141C-39.1691 531.813 -39.038 531.027 -38.7102 530.372C-37.4646 527.948 -35.3669 520.612 -35.498 518.712C-35.5635 516.878 -34.6457 513.733 -33.3346 511.047C-33.0069 510.392 -32.7446 509.279 -32.7446 508.558C-32.7446 507.837 -32.3513 506.527 -31.8269 505.741C-31.368 504.955 -30.5813 502.531 -30.1224 500.369C-29.6635 498.208 -28.8769 495.98 -28.3524 495.391C-27.8935 494.867 -27.5002 493.753 -27.5002 493.033C-27.5002 492.312 -27.0413 491.329 -26.5169 490.871C-25.9924 490.412 -25.5335 489.299 -25.5335 488.316C-25.5335 487.399 -25.0746 486.023 -24.5502 485.368C-23.9602 484.582 -23.5669 482.617 -23.5669 480.586C-23.5669 477.9 -23.3702 477.114 -22.5835 477.114C-21.4691 477.114 -20.2891 479.603 -20.8135 480.913C-20.9446 481.372 -20.6824 482.224 -20.0924 482.879C-19.568 483.468 -17.7324 486.809 -16.0935 490.216C-10.1935 502.204 -3.57241 511.178 -0.425741 511.178C0.360925 511.178 0.098703 509.017 -0.950186 506.986C-1.47463 506.003 -1.73685 504.89 -1.54019 504.562C-1.34352 504.234 -2.13019 502.4 -3.31019 500.5C-4.49019 498.535 -5.40796 496.242 -5.34241 495.129C-5.34241 494.081 -5.53907 492.902 -5.8013 492.508C-6.85019 491.264 -8.62019 477.507 -8.09574 475.214C-7.83352 473.97 -7.50574 473.773 -5.93241 474.035C-3.96574 474.428 -3.96574 474.559 -3.90019 468.205C-3.90019 466.043 -1.73685 463.423 -0.950186 464.602C-0.425741 465.519 3.11426 465.519 3.6387 464.667C3.90093 464.274 4.8187 464.536 5.9987 465.388C7.7687 466.633 7.96537 466.633 8.3587 465.585C8.55537 464.995 8.42426 463.947 8.03093 463.357C7.63759 462.702 7.50648 461.589 7.70315 460.802C7.89981 460.082 7.57204 458.706 7.04759 457.855C6.06426 456.413 6.06426 456.217 7.24426 455.169C8.16204 454.383 8.42426 453.531 8.16204 452.417C7.83426 451.238 8.22759 450.19 9.66981 448.421C10.7187 447.111 11.9643 445.015 12.4231 443.836C13.0787 442.395 13.7343 441.739 14.7176 441.739C17.5365 441.739 20.4209 436.761 18.3887 435.516C17.2087 434.796 17.6676 432.83 20.0276 428.31C23.8954 420.711 25.5998 419.729 26.3865 424.773C27.2387 430.341 28.0909 433.289 29.1398 434.468C29.7298 435.058 30.1887 436.106 30.1887 436.761C30.1887 437.416 31.0409 440.626 32.0898 443.901C33.1387 447.242 34.6465 452.286 35.4331 455.103C36.2198 457.986 37.5309 461.72 38.3831 463.357C39.2354 464.995 40.0876 467.812 40.3498 469.581C40.612 471.415 41.3331 473.446 41.9887 474.166C43.8243 476.262 44.4798 477.966 45.0043 481.765C45.2009 483.73 45.8565 485.827 46.3809 486.416C46.9709 487.071 47.1676 488.054 46.9054 488.84C46.6431 489.626 46.9054 491.133 47.4954 492.246C48.0854 493.426 48.3476 494.998 48.1509 495.915C47.8231 497.16 48.2165 498.011 49.7898 499.649C51.1009 501.025 52.0187 502.793 52.412 504.824C52.6743 506.527 53.7231 509.017 54.6409 510.392C55.4931 511.702 56.4765 513.668 56.6731 514.716C56.9354 515.698 58.5087 519.694 60.2787 523.559C61.9831 527.359 63.9498 532.141 64.6054 534.106C65.3265 536.072 66.2443 538.168 66.7031 538.757C67.162 539.281 67.5554 540.723 67.5554 541.836C67.5554 542.95 68.4076 545.636 69.522 547.732C70.5709 549.894 71.4887 552.121 71.4887 552.776C71.4887 553.431 71.8165 555.069 72.2754 556.445C72.9309 558.737 73.1931 558.999 75.2254 558.999C77.3231 558.999 78.0443 558.213 76.7331 557.362C76.4054 557.165 76.0776 556.117 76.0776 555.069C76.0776 554.021 75.8154 553.038 75.4876 552.842C75.1598 552.58 74.242 551.073 73.4554 549.304C72.6687 547.601 71.6854 545.505 71.1609 544.588C70.702 543.67 70.112 541.64 69.8498 540.068C69.5876 538.43 68.8665 536.203 68.2109 535.089C67.5554 533.975 66.8343 532.01 66.572 530.765C66.3098 529.521 65.7854 527.948 65.392 527.228C63.9498 524.477 60.3443 513.406 60.672 512.62C60.8687 512.161 60.4098 510.982 59.6887 509.999C57.722 507.379 54.182 496.701 53.0676 490.216C52.3465 485.958 49.8554 479.538 47.2331 475.149C46.9054 474.625 45.7254 471.153 44.6109 467.419C43.4309 463.75 42.2509 460.606 41.9887 460.409C41.7265 460.213 40.9398 457.199 40.2843 453.728C39.6943 450.19 38.842 446.915 38.4487 446.456C37.1376 444.687 35.6298 439.316 35.9576 437.285C36.0887 436.171 35.892 434.337 35.4987 433.223C34.9087 431.52 35.0398 430.996 36.0887 429.948C38.0554 427.983 37.662 426.476 34.7776 424.707C33.3354 423.79 32.1554 422.939 32.1554 422.742C32.1554 422.546 32.6798 421.628 33.2698 420.777C34.122 419.532 34.3843 418.156 34.1876 415.34C34.0565 412.981 34.2531 411.606 34.712 411.606C35.1054 411.606 35.4331 411.016 35.4331 410.23C35.4331 409.116 35.7609 408.92 37.5965 409.116L39.6943 409.313L40.2843 404.924C40.8087 400.6 40.8087 400.6 42.9065 400.6C44.0209 400.6 45.6598 400.469 46.5776 400.338C48.0198 400.142 48.2165 400.404 48.4131 402.238C48.5443 403.352 49.3309 405.055 50.2487 406.037C51.1665 407.02 52.3465 408.592 53.002 409.509C53.592 410.492 54.6409 411.671 55.2309 412.13C55.8865 412.588 56.4109 413.571 56.4109 414.226C56.4109 414.881 57.132 416.257 57.9843 417.174C59.492 418.812 60.9998 423.201 60.9998 425.952C60.9998 427.393 63.1631 427.917 63.9498 426.673C64.1465 426.28 65.4576 426.017 66.7687 426.017C70.8331 426.017 70.9643 425.624 69.7843 419.729C69.1943 416.912 68.5387 413.243 68.2765 411.606C68.0143 409.968 67.4243 408.003 67.0309 407.217C66.1787 405.644 65.982 402.5 66.7687 401.386C67.0309 400.993 68.0143 400.469 68.9976 400.207C70.3743 399.88 70.9643 400.076 71.4887 401.124C71.882 401.845 72.7998 402.434 73.5209 402.434C75.0287 402.434 77.8476 405.513 77.5198 406.824C77.3887 407.282 77.5854 407.675 77.9131 407.675C79.2243 407.675 80.4698 403.352 80.3387 399.29C80.2076 395.556 80.2731 395.229 81.5187 395.229C83.2231 395.229 88.5331 397.783 88.5331 398.569C88.5331 398.897 90.3687 399.159 92.6631 399.159C96.072 399.225 97.3831 399.552 100.661 401.452C102.824 402.697 106.43 404.596 108.659 405.71C113.182 408.003 113.706 408.723 112.723 411.606C111.871 414.029 112.33 415.536 113.969 415.536C115.411 415.536 117.378 413.571 117.378 412.064C117.378 410.426 118.492 410.164 120.786 411.147C121.966 411.671 123.474 412.261 124.064 412.457C124.72 412.719 126.096 414.095 127.211 415.602C128.325 417.174 130.161 418.812 131.341 419.336C135.471 421.235 136.782 421.89 143.206 425.362C148.779 428.31 150.352 428.9 154.22 429.162C157.366 429.358 158.678 429.227 158.678 428.703C158.678 428.31 159.399 427.655 160.316 427.328C162.152 426.607 162.349 425.952 161.169 424.052C160.054 422.284 162.021 420.122 163.791 421.17C165.495 422.218 167.855 425.952 167.79 427.59C167.79 428.31 167.855 429.489 167.986 430.21C168.118 431.127 167.593 431.651 165.889 432.241L163.594 433.027L163.463 439.185C163.266 444.294 163.004 445.67 161.89 447.242C160.251 449.404 159.333 452.483 158.874 457.003C158.678 459.099 158.284 460.082 157.629 460.082C156.842 460.082 156.842 460.344 157.366 461.392C157.76 462.113 158.678 462.702 159.399 462.702C161.496 462.702 161.628 464.536 159.726 466.567C158.809 467.55 158.022 468.86 158.022 469.45C158.022 470.039 157.629 470.563 157.104 470.563C156.645 470.563 155.859 471.022 155.334 471.611C154.875 472.201 152.712 473.511 150.549 474.625C147.336 476.262 146.091 476.524 143.862 476.197C140.715 475.804 139.798 476.459 141.305 477.966C142.289 479.014 142.616 480.389 141.895 480.389C141.633 480.389 140.519 479.8 139.404 479.145C138.29 478.49 135.799 477.245 133.898 476.459C130.816 475.149 130.358 475.083 129.309 475.935C127.998 477.114 119.41 477.048 115.083 475.869C110.691 474.69 108.462 474.952 107.02 476.786C106.102 477.966 104.922 478.49 102.824 478.686C99.3498 479.079 92.1387 482.551 91.1554 484.32C90.6309 485.303 90.0409 485.565 88.9265 485.237C87.9431 485.041 87.0254 485.303 86.3043 485.958C84.9276 487.333 84.9931 487.988 86.632 490.609C88.402 493.557 91.942 494.539 96.662 493.426C98.4976 492.967 100.661 492.181 101.513 491.657C102.365 491.133 104.66 490.674 106.758 490.609L110.494 490.543L110.691 506.265C110.822 516.354 110.56 523.952 110.035 527.555C108.921 535.482 109.249 550.483 110.691 555.265L111.805 558.999H115.87H119.934L118.885 556.576C118.164 554.807 117.771 551.335 117.574 544.588C117.443 539.347 117.05 533.713 116.656 532.01C116.263 530.307 116.132 528.08 116.329 527.097C116.591 525.983 116.329 523.952 115.739 522.315C115.083 520.546 114.428 515.371 114.1 509.213C113.313 495.718 112.854 492.115 112.068 491.133C111.281 490.15 113.182 488.906 115.542 488.906C116.788 488.906 127.145 490.347 132.193 491.264C132.98 491.395 134.225 492.508 134.946 493.622C135.602 494.801 138.618 498.339 141.568 501.483C144.452 504.562 146.878 507.313 146.878 507.575C146.878 508.099 150.155 512.423 151.794 514.126C155.465 517.729 156.383 522.577 154.548 528.669C153.761 531.355 153.63 531.42 152.581 530.372C151.073 528.8 149.696 530.11 150.745 532.076C151.598 533.582 152.778 533.844 153.892 532.731C154.285 532.338 154.941 532.207 155.334 532.403C156.318 533.058 156.252 541.116 155.269 541.902C151.335 545.046 148.648 548.518 148.91 550.025C148.975 550.418 148.844 551.531 148.582 552.449C148.32 553.497 148.516 555.069 149.172 556.576L150.155 558.999H205.484C257.666 558.999 260.879 558.934 261.141 557.82C262.78 551.663 263.042 550.418 262.78 550.09C262.583 549.959 261.01 550.549 259.305 551.466C257.601 552.383 255.831 553.104 255.372 553.104C254.913 553.104 253.405 554.152 252.029 555.396C249.538 557.689 247.243 558.41 247.112 556.838C246.784 551.859 247.702 547.339 250.193 541.509C250.718 540.395 251.111 539.085 251.111 538.561C251.111 538.037 251.373 537.382 251.701 536.989C252.553 536.137 252.881 534.237 252.16 534.106C251.57 533.975 248.751 538.43 246.981 542.295C246.456 543.343 244.686 545.505 243.048 546.946C240.622 549.173 239.704 549.632 238.196 549.304C234.853 548.715 234.525 548.06 234.984 542.819C235.378 538.364 234.919 536.792 233.739 538.692C232.952 539.937 231.444 539.347 231.444 537.84C231.444 535.351 228.363 529.586 226.724 528.931C225.872 528.604 223.315 528.342 220.955 528.342C217.612 528.342 215.776 527.948 212.958 526.638C207.582 524.083 207.385 523.69 209.155 518.974C210.139 516.157 210.401 514.781 209.876 514.257C209.549 513.93 207.32 513.668 205.025 513.733C201.879 513.799 200.502 513.602 199.715 512.816C198.404 511.506 198.404 510.589 199.584 510.13C200.109 509.934 201.354 508.755 202.272 507.51C203.583 505.741 203.845 505.021 203.321 504.365C202.731 503.645 202.928 503.514 204.239 503.514C205.156 503.514 206.336 503.121 206.926 502.597C207.844 501.876 207.779 501.68 206.402 500.959C205.55 500.5 204.304 500.304 203.518 500.435C202.469 500.697 201.944 500.369 201.289 498.732C200.83 497.618 200.109 496.504 199.715 496.242C199.322 495.98 198.404 494.67 197.683 493.295C196.306 490.609 195.979 490.478 194.078 491.657C193.029 492.312 192.57 492.246 191.128 490.871C189.161 489.037 188.309 489.561 189.358 491.853C189.816 492.771 190.144 494.277 190.144 495.129C190.144 496.046 190.472 496.767 190.8 496.767C191.193 496.767 191.455 497.225 191.455 497.749C191.455 498.273 191.324 498.732 191.128 498.732C190.406 498.732 187.522 497.16 187.522 496.767C187.522 496.57 186.998 495.784 186.342 495.063C185.752 494.408 184.703 493.033 184.113 492.115C183.13 490.543 182.736 490.478 180.18 490.871C178.606 491.133 176.312 491.919 175.066 492.705C172.182 494.474 170.478 494.539 170.478 492.902C170.478 491.329 174.673 487.595 176.443 487.595C177.623 487.595 177.689 487.464 176.705 485.63C176.181 484.582 175.132 483.403 174.411 483.01C172.969 482.224 172.641 480.389 173.952 480.389C174.345 480.389 175.656 481.307 176.836 482.355C179.262 484.582 180.966 484.909 180.966 483.075C180.966 482.355 181.294 481.569 181.688 481.307C182.343 480.913 182.146 479.341 181.229 476.917C180.966 476.197 181.294 476.066 182.671 476.328C183.982 476.59 184.703 476.262 185.621 475.083C186.539 473.839 186.932 473.642 187.588 474.363C188.768 475.476 192.045 475.345 192.504 474.166C192.898 473.184 192.176 471.415 189.489 466.633C188.112 464.209 188.505 463.619 190.996 464.274C194.602 465.126 208.369 481.569 206.533 482.682C205.878 483.075 201.682 480.127 199.978 478.097C199.519 477.573 198.929 477.114 198.601 477.114C197.749 477.114 198.208 482.027 199.125 483.141C199.584 483.665 200.109 485.303 200.371 486.809C201.026 491.067 201.813 491.788 205.288 491.067C208.172 490.478 208.172 490.478 208.172 487.792C208.172 486.285 208.369 484.909 208.631 484.647C209.745 483.534 216.235 488.774 218.005 492.246C218.858 493.884 218.858 493.95 217.284 493.622C215.973 493.36 215.711 493.622 215.711 494.932C215.711 495.915 215.055 496.832 213.941 497.553C212.892 498.142 211.384 499.387 210.532 500.304C209.155 501.745 209.09 502.007 210.073 502.4C210.663 502.597 211.581 502.466 212.105 502.007C213.154 501.09 217.284 500.959 221.021 501.68C222.463 501.942 223.971 501.811 224.889 501.352C226.003 500.763 226.528 500.763 227.38 501.549C227.97 502.073 230.002 502.531 231.772 502.662C233.608 502.728 235.902 502.859 236.951 502.924C238 502.924 238.983 502.597 239.114 502.138C239.311 501.745 239.049 501.352 238.524 501.352C237.475 501.352 230.199 497.618 228.691 496.242C227.642 495.325 227.38 495.391 226.265 496.373C225.61 496.963 224.626 497.291 223.971 497.029C222.398 496.439 222.725 495.456 224.561 495.456C226.986 495.456 226.593 494.015 223.25 491.067C221.676 489.692 219.054 486.613 217.546 484.254C215.973 481.896 213.679 478.686 212.368 477.114C211.122 475.476 209.155 472.659 208.041 470.891C206.14 467.746 205.878 466.829 204.632 461.13C204.239 459.427 203.386 458.051 202.141 457.199C200.24 455.824 199.715 455.234 194.733 449.797C189.292 443.836 188.178 442.526 188.178 442.067C188.178 441.805 187.391 440.495 186.408 439.185C184.179 436.302 183.13 434.599 182.343 432.83C181.688 431.389 176.115 426.149 170.805 421.89C169.035 420.449 166.872 418.156 166.02 416.715C164.512 414.291 164.512 414.029 165.495 411.933C166.085 410.754 166.544 409.313 166.544 408.789C166.544 408.068 167.331 407.675 169.035 407.544C170.936 407.413 171.461 407.086 171.461 406.037C171.461 404.269 173.69 404.334 174.87 406.168C175.788 407.544 175.722 407.675 174.149 408.068C171.92 408.592 171.92 410.295 174.083 410.295C176.05 410.295 180.966 405.644 180.966 403.876C180.966 402.041 183.851 400.731 185.752 401.648C187.456 402.565 193.946 402.893 195.454 402.172C196.306 401.779 196.765 402.303 197.421 404.531C198.142 406.693 198.732 407.413 199.912 407.544C200.764 407.675 201.748 407.479 202.141 407.086C202.534 406.693 203.583 406.365 204.435 406.365C205.288 406.365 207.058 405.448 208.303 404.4C209.483 403.286 210.794 402.434 211.122 402.434C211.384 402.434 211.843 401.583 212.105 400.469C212.433 398.897 212.826 398.569 214.269 398.635C215.252 398.7 216.563 398.504 217.153 398.242C218.005 397.849 218.53 398.176 219.054 399.421C219.513 400.338 220.103 401.124 220.365 401.124C220.693 401.124 221.218 402.303 221.611 403.745C222.266 406.234 222.463 406.365 224.889 406.365C228.822 406.365 230.789 405.382 231.182 403.09C231.444 402.041 231.838 401.124 232.165 401.124C233.149 401.124 232.821 409.313 231.772 411.802C231.248 413.112 230.789 414.947 230.789 415.864C230.789 416.781 230.395 418.222 229.871 419.008C229.412 419.794 228.625 422.808 228.232 425.69C227.183 432.568 225.61 440.036 224.495 443.639C223.971 445.277 223.578 448.225 223.578 450.321C223.578 452.417 223.315 454.317 222.922 454.514C222.594 454.71 222.266 456.872 222.266 459.296C222.266 464.274 223.315 464.143 223.774 459.099C223.905 457.265 224.495 454.121 225.085 452.024C225.61 449.928 225.938 447.635 225.741 446.98C225.544 446.325 225.872 445.08 226.462 444.229C227.052 443.443 227.511 441.477 227.511 439.84C227.511 438.006 227.904 436.499 228.625 435.713C229.412 434.861 229.805 433.289 229.805 430.865C229.871 428.769 230.199 427 230.658 426.738C231.116 426.476 231.706 425.362 232.1 424.314C232.428 423.266 233.411 420.318 234.329 417.829C235.246 415.274 236.033 412.326 236.033 411.278C236.033 410.164 236.492 408.592 237.016 407.675C237.541 406.758 237.934 405.382 238 404.531C238 402.762 239.049 402.631 239.901 404.334C240.425 405.186 240.229 406.168 239.442 407.806C238.524 409.509 238.393 410.492 238.852 411.475C239.311 412.457 239.311 413.44 238.852 414.488C238.131 415.929 238.262 415.995 240.491 415.929C243.638 415.798 249.996 412.719 251.57 410.623C252.225 409.706 253.93 408.527 255.372 408.068C257.732 407.217 258.191 407.282 260.616 408.527C268.286 412.588 272.482 411.868 282.905 404.662C284.741 403.483 286.511 402.041 286.839 401.583C287.232 401.124 288.936 399.421 290.641 397.849C294.05 394.77 295.033 394.901 295.033 398.635C295.033 400.928 295.623 402.434 296.606 402.434C297.065 402.434 298.376 403.155 299.622 404.072C302.375 406.103 302.441 406.103 304.276 404.007C305.129 403.09 306.505 402.107 307.358 401.714C308.21 401.386 308.669 400.862 308.472 400.469C308.275 400.142 308.275 399.487 308.538 399.028C308.865 398.504 309.259 398.635 309.849 399.421C310.308 400.076 311.291 400.469 312.209 400.338C313.454 400.207 313.782 399.683 314.044 397.194C314.241 395.556 314.765 393.656 315.159 392.936C315.486 392.215 316.011 390.446 316.208 388.94C316.601 386.45 317.912 383.044 319.354 380.817C319.682 380.293 320.731 378.196 321.714 376.231C323.681 372.104 324.992 370.335 326.303 370.335C327.483 370.335 327.418 373.873 326.106 376.362C325.516 377.541 324.992 379.965 324.926 381.734C324.861 384.944 324.926 385.075 326.696 385.271C327.745 385.402 328.466 385.206 328.466 384.682C328.466 384.223 328.925 383.372 329.45 382.716C330.302 381.865 330.958 381.734 332.924 382.192C334.235 382.52 335.743 382.782 336.136 382.782C337.382 382.782 338.628 379.703 339.611 374.397C340.07 371.777 340.856 369.353 341.381 368.96C341.84 368.567 342.233 367.781 342.233 367.256C342.233 365.684 344.331 363.129 345.576 363.129C347.215 363.129 347.871 361.492 346.953 359.527C346.363 358.282 346.494 357.823 347.543 356.841C349.116 355.465 349.116 354.744 347.674 354.875C347.019 354.875 346.429 354.482 346.298 353.827C346.035 352.386 348.658 350.028 350.559 350.028C351.87 350.028 352.001 350.29 351.673 351.731C351.28 353.369 351.28 353.369 353.771 352.976C355.213 352.714 356.655 352.124 357.049 351.6C357.442 351.141 359.343 349.635 361.31 348.325C363.211 346.949 366.948 343.804 369.504 341.25C372.061 338.695 374.552 336.599 375.076 336.664C375.666 336.73 375.732 336.599 375.208 336.468C374.749 336.271 374.355 335.681 374.355 335.092C374.355 334.502 373.896 333.127 373.372 332.078C372.848 331.096 372.389 329.72 372.389 329.065C372.389 327.362 375.404 325.2 378.42 324.742C379.796 324.48 381.108 324.021 381.304 323.693C381.501 323.366 382.156 323.497 382.746 324.021C383.402 324.611 384.32 325.069 384.844 325.2C386.418 325.462 389.958 324.48 390.744 323.497C391.138 322.973 392.514 322.252 393.76 321.859C395.726 321.204 396.251 321.27 397.234 322.121C397.89 322.711 400.053 323.628 402.02 324.152C405.822 325.135 410.411 327.493 410.411 328.41C410.411 328.738 409.886 329.262 409.296 329.655C408.313 330.179 408.248 330.506 408.969 331.62C409.69 332.799 409.624 332.996 408.51 332.996C407.854 332.996 406.543 333.585 405.625 334.306C403.659 335.878 402.938 335.943 400.971 334.633C399.529 333.651 399.398 333.716 398.349 335.288C396.972 337.385 392.383 340.464 391.465 339.874C391.072 339.677 390.744 338.76 390.744 337.909C390.744 336.664 391.662 335.812 395.005 333.847C397.628 332.341 399.201 330.965 399.07 330.375C398.611 327.624 392.973 330.244 391.138 334.044C389.958 336.599 382.681 342.822 380.911 342.822C379.206 342.822 375.601 347.473 373.11 352.845C371.995 355.334 371.078 357.43 371.078 357.561C371.078 359.068 360.13 372.956 358.95 372.956C355.344 372.956 344.528 387.761 339.808 399.159C336.268 407.675 336.005 408.723 332.99 424.707C332.269 428.638 331.023 439.709 331.023 442.722C331.023 447.308 332.465 472.332 332.99 476.131C333.776 481.438 335.612 487.595 336.464 487.595C336.792 487.595 336.923 488.84 336.792 490.412C336.595 491.919 336.726 493.753 336.989 494.474C337.448 495.718 337.448 495.718 338.169 494.408C338.562 493.622 338.759 492.836 338.496 492.639C338.3 492.377 338.496 491.788 338.89 491.264C339.48 490.609 339.48 489.954 339.021 489.037C338.562 488.119 338.628 487.595 339.545 486.809C340.529 486.023 340.725 485.106 340.463 482.617C339.873 475.214 339.676 454.579 340.201 453.924C340.529 453.531 340.988 450.059 341.25 446.129C341.512 442.264 341.971 438.923 342.299 438.726C342.626 438.53 342.889 437.547 342.889 436.564C342.889 435.516 343.544 434.141 344.462 433.289C345.97 431.848 346.429 430.538 348.133 422.742C348.854 419.401 351.542 413.702 352.788 412.916C353.115 412.719 354.492 412.654 355.934 412.785C358.163 412.981 358.688 413.374 359.343 415.078C359.736 416.257 360.064 417.436 359.999 417.829C359.868 418.156 359.671 422.808 359.474 428.179C359.278 435.058 359.409 437.809 359.868 437.481C360.326 437.285 360.589 434.796 360.589 431.651C360.589 426.738 360.72 426.149 361.9 425.821C362.621 425.624 363.211 425.166 363.211 424.773C363.211 424.38 362.621 423.463 361.9 422.742C360.326 421.17 360.261 420.515 361.506 419.532C362.031 419.074 362.424 418.222 362.424 417.632C362.293 412.916 363.408 400.731 364.063 399.945C365.309 398.373 365.636 401.19 365.309 411.016C364.981 420.842 365.44 425.362 366.685 424.118C367.079 423.725 367.472 421.563 367.538 419.27C367.734 407.413 367.734 407.544 368.98 407.806C369.898 408.003 370.094 408.789 370.16 412.588C370.225 418.55 371.012 423.528 371.799 423.004C372.126 422.808 372.389 422.284 372.258 421.89C371.93 419.86 373.306 402.631 373.896 401.452C374.224 400.797 374.618 399.028 374.749 397.521C375.076 392.674 376.519 385.075 377.174 384.223C377.699 383.568 378.682 383.437 380.321 383.699C383.73 384.223 384.779 383.634 386.155 380.489C387.139 378.131 387.598 377.738 388.909 378C389.892 378.196 390.875 377.803 391.662 376.952C392.383 376.166 393.432 375.576 394.022 375.576C394.678 375.576 395.53 375.117 395.989 374.593C398.021 372.17 398.611 374.2 396.644 376.69C395.923 377.607 395.333 378.917 395.333 379.638C395.333 380.817 390.81 389.922 388.056 394.377C387.335 395.491 386.68 397.718 386.614 399.29C386.352 404.334 388.122 402.762 392.449 394.049C394.678 389.66 397.234 385.271 398.218 384.289C399.135 383.372 400.184 381.537 400.578 380.227C401.364 377.279 405.166 372.956 407.002 372.956C407.985 372.956 408.444 373.414 408.575 374.724C408.772 376.755 411.066 377.607 412.705 376.231C413.23 375.838 415.131 375.38 417.032 375.314C418.933 375.183 420.638 374.79 420.769 374.397C421.096 373.414 423.063 373.414 423.981 374.331C424.505 374.855 425.095 374.855 426.144 374.266C426.931 373.873 427.718 373.611 427.849 373.807C428.045 374.004 429.225 373.873 430.602 373.545C432.11 373.218 433.29 373.283 433.814 373.676C434.798 374.528 435.978 373.873 435.978 372.628C435.978 372.104 436.568 371.384 437.289 370.99C438.141 370.532 438.6 369.615 438.6 368.501C438.6 366.274 440.763 363.785 442.664 363.785C443.648 363.785 443.91 364.112 443.648 365.095C443.385 366.077 443.648 366.405 444.631 366.405C447.712 366.405 451.186 367.977 452.104 369.746C453.415 372.301 455.513 373.611 458.463 373.611C460.233 373.611 460.889 373.873 460.758 374.397C460.561 374.855 460.102 375.314 459.709 375.314C459.25 375.38 458.66 375.445 458.266 375.511C457.939 375.511 457.218 376.624 456.628 377.934C456.103 379.245 455.12 380.424 454.53 380.62C453.874 380.751 452.17 382.389 450.793 384.158C449.351 385.926 447.712 387.368 447.188 387.368C445.68 387.368 443.189 389.202 443.189 390.381C443.189 390.905 442.599 392.019 441.878 392.805C441.091 393.591 440.37 394.967 440.108 395.884C439.911 396.801 439.124 398.176 438.403 398.963C437.682 399.749 437.158 401.124 437.158 402.107C437.092 403.745 433.749 407.872 431.192 409.313C429.356 410.361 428.701 415.798 429.946 419.663C430.995 422.873 430.995 422.939 429.488 423.987C428.701 424.576 427.259 425.69 426.341 426.476C425.423 427.328 424.374 427.983 424.112 427.983C423.784 427.983 423.522 428.703 423.522 429.555C423.522 431.979 422.408 434.468 420.375 436.499C417.491 439.447 416.901 440.364 416.77 442.198C416.573 445.277 418.671 444.884 422.145 441.15C423.85 439.316 425.554 437.809 425.948 437.809C426.275 437.809 428.898 435.32 431.716 432.241C434.535 429.162 437.223 426.738 437.682 426.935C439.059 427.459 440.173 425.493 439.452 423.856C437.158 418.943 437.289 416.191 439.911 416.191C440.698 416.191 441.55 415.536 442.009 414.554C442.468 413.571 443.123 412.981 443.648 413.243C444.238 413.44 445.024 412.785 445.68 411.606C446.27 410.558 447.122 409.64 447.515 409.64C447.843 409.64 450.138 407.741 452.563 405.382C455.251 402.697 457.611 400.928 458.856 400.731C460.43 400.404 460.889 399.945 460.889 398.766C460.889 397.914 461.479 396.932 462.2 396.539C462.921 396.146 463.511 395.294 463.511 394.639C463.511 393.984 464.101 392.936 464.822 392.281C465.543 391.626 466.133 390.512 466.133 389.791C466.133 389.136 466.526 387.761 467.051 386.843C467.575 385.861 468.165 384.289 468.428 383.241C468.624 382.258 469.214 381.472 469.673 381.472C470.722 381.472 471.246 383.241 471.705 388.612C471.902 390.577 472.492 392.87 473.016 393.656C473.541 394.442 473.934 396.211 473.934 397.587C473.934 399.028 473.934 402.631 473.934 405.71C473.934 408.789 474.196 412.457 474.59 413.898C474.983 415.34 475.114 417.567 474.918 418.812C474.655 420.515 474.852 421.432 475.573 422.021C476.556 422.873 476.556 423.004 475.573 424.118C474.459 425.362 474.459 425.428 477.212 426.149C478.326 426.476 480.49 432.699 480.555 435.582C480.555 436.695 480.752 437.809 481.014 438.071C481.277 438.333 481.604 441.215 481.67 444.491C481.867 450.976 483.178 459.558 484.685 463.816C485.538 466.371 485.538 466.633 484.423 467.681C483.702 468.27 483.178 469.45 483.178 470.17C483.178 471.677 484.882 474.494 486.259 475.345C487.439 476.066 487.308 479.472 486.062 481.438C485.472 482.355 484.882 483.992 484.751 485.172C484.292 489.692 483.964 490.871 483.047 492.312C480.031 496.963 481.539 502.99 486.652 506.527C490.323 509.017 494.257 513.537 494.715 515.764C495.83 521.136 497.928 528.211 498.977 530.307C500.025 532.338 502.844 543.277 502.844 545.243C502.844 545.636 502.058 546.291 501.14 546.684C499.632 547.404 499.501 547.732 499.894 549.763C500.157 551.073 500.747 552.776 501.271 553.562C501.795 554.348 502.189 555.593 502.189 556.248C502.189 558.606 503.5 558.999 512.022 558.999C520.085 558.999 520.217 558.934 518.643 557.755C516.808 556.379 517.07 554.479 519.823 548.584C521.397 545.177 521.528 544.26 521.528 536.268C521.528 526.376 522.249 524.411 524.347 528.604C526.379 532.731 526.772 538.102 526.117 551.597L525.723 558.999H529.329H533V556.379C533 554.479 532.738 553.759 532.017 553.759C531.361 553.759 531.033 553.104 531.033 551.794C531.033 550.483 531.361 549.828 532.017 549.828C532.541 549.828 533 549.501 533 549.108C533 548.78 532.672 548.649 532.344 548.846C531.492 549.37 529.984 545.832 529.46 541.836C529.198 540.133 528.739 538.561 528.345 538.364C528.018 538.102 527.755 536.006 527.755 533.582C527.755 531.158 527.428 528.014 527.034 526.573C526.641 525.132 526.051 522.053 525.723 519.76C525.395 517.402 524.871 515.24 524.478 514.847C524.15 514.519 523.822 512.816 523.822 511.178C523.822 509.541 523.494 507.837 523.101 507.444C522.708 507.051 522.183 505.152 521.855 503.252C520.61 495.915 519.954 493.033 518.643 489.233C517.857 487.071 516.873 484.254 516.545 483.01C516.152 481.765 515.562 480.455 515.234 480.127C514.907 479.734 514.644 479.014 514.644 478.49C514.644 477.9 514.185 476.59 513.661 475.542C513.071 474.494 512.35 472.528 512.022 471.284C511.694 469.974 510.973 467.157 510.383 464.995C509.793 462.833 509.007 459.754 508.613 458.117C508.22 456.479 507.499 454.579 507.04 453.859C506.515 453.138 506.122 452.09 506.122 451.5C506.122 450.911 505.663 449.535 505.139 448.552C504.614 447.504 504.155 446.063 504.155 445.277C504.155 444.556 503.893 443.705 503.5 443.312C503.172 442.984 502.648 440.757 502.451 438.464C502.189 436.106 501.795 433.878 501.533 433.551C501.205 433.158 500.747 430.407 500.484 427.328C500.157 423.07 499.698 421.301 498.583 419.794C497.731 418.681 496.354 416.191 495.437 414.226C494.584 412.261 493.077 409.771 492.093 408.789C491.175 407.806 490.389 406.365 490.389 405.644C490.389 404.924 489.93 404.203 489.405 404.007C488.881 403.745 488.422 403.09 488.422 402.434C488.422 401.779 487.963 400.928 487.439 400.469C486.914 400.011 486.455 399.29 486.455 398.832C486.455 396.473 472.951 379.507 471.05 379.507C469.87 379.507 463.511 373.152 463.445 371.842C463.38 371.187 463.314 369.156 463.249 367.322C463.118 362.671 461.085 360.051 451.645 352.452C450.859 351.862 449.875 351.338 449.416 351.338C449.023 351.338 446.925 349.635 444.762 347.538C442.664 345.442 439.845 343.215 438.6 342.56C437.354 341.97 435.453 340.857 434.339 340.202C433.29 339.481 431.782 338.629 431.061 338.236C429.16 337.254 427.39 336.14 424.768 334.109C422.145 332.21 420.9 331.947 419.785 333.061C418.868 333.978 415.655 333.323 415.655 332.275C415.655 331.816 416.376 331.685 417.622 331.882C418.671 332.144 419.72 332.078 419.851 331.751C420.375 330.899 415.262 326.445 413.754 326.445C413.033 326.445 412.312 326.183 412.05 325.855C411.853 325.462 410.149 324.414 408.248 323.497C406.412 322.514 403.659 321.073 402.216 320.221C400.774 319.37 399.07 318.649 398.414 318.649C397.234 318.584 393.235 316.094 392.776 315.112C392.645 314.784 391.859 314.326 391.072 313.998C389.892 313.54 389.63 313.081 389.892 311.902C390.154 311.05 390.679 310.133 391.203 309.871C391.662 309.609 392.055 308.627 392.055 307.775C392.055 306.923 392.449 305.81 392.973 305.286C394.153 304.172 395.53 299.128 395.071 297.883C394.809 297.163 392.842 296.966 385.828 296.966C380.911 296.966 376.322 297.294 375.666 297.621C374.945 298.014 368.193 298.342 359.54 298.342C346.822 298.407 344.462 298.276 343.872 297.425C342.626 295.721 339.873 295.459 336.136 296.638C333.186 297.556 332.006 297.621 328.794 297.032C326.631 296.638 324.664 296.049 324.271 295.656C322.96 294.346 323.812 285.109 325.844 279.017C326.959 275.807 327.811 272.335 327.811 271.352C327.811 270.37 328.073 269.387 328.401 269.125C328.729 268.928 329.253 267.815 329.45 266.636C330.171 263.36 331.679 260.871 334.76 257.661C337.316 254.975 337.644 254.32 337.841 251.176C338.103 246.59 339.808 245.018 343.151 246.001C346.101 246.918 347.084 246.459 349.051 243.38C349.903 242.005 351.673 240.301 352.984 239.712C355.475 238.533 358.163 235.454 358.95 232.768C359.212 231.851 360.326 229.558 361.31 227.658C362.359 225.758 363.211 223.335 363.211 222.286C363.211 220.845 363.735 219.994 365.571 218.749C370.225 215.605 371.012 212.984 370.291 203.551C369.963 199.228 369.832 198.9 366.948 195.297C365.243 193.201 365.112 192.546 365.374 189.729C366.292 181.606 367.669 175.776 369.308 172.959C370.946 170.207 371.078 169.356 371.078 162.543C371.143 157.106 371.34 154.813 372.061 153.896C373.241 152.324 373.372 145.249 372.323 142.563C371.864 141.58 371.34 137.322 371.012 133.195C370.488 124.941 368.783 114.067 367.8 112.232C367.406 111.512 367.144 110.005 367.144 108.826C367.079 107.647 366.423 105.616 365.636 104.24C359.999 94.8727 357.966 91.4008 357.442 89.9596C357.049 89.0425 356.262 87.8633 355.672 87.3393C353.574 85.5705 351.608 81.7711 351.28 78.7577C350.952 75.5478 349.116 72.9274 346.035 70.9622C344.986 70.3726 343.085 68.8659 341.774 67.6213C338.89 65.0009 334.629 63.1012 331.482 63.1012C330.302 63.1012 328.925 62.6426 328.466 62.1186C328.008 61.5945 327.286 61.1359 326.828 61.1359C326.369 61.1359 325.123 60.6774 324.14 60.1533C323.091 59.6292 321.255 59.1707 320.075 59.1707C318.895 59.1707 316.994 58.6466 315.814 58.057C312.93 56.5503 304.014 56.5503 301.261 58.057C300.212 58.6466 298.311 59.1707 297.131 59.1707C294.574 59.1707 290.51 57.402 289.985 56.0918C289.592 55.1092 286.511 54.9126 286.511 55.8298C286.511 56.1573 287.363 56.6159 288.412 56.8779C289.723 57.1399 290.248 57.5985 289.985 58.2536C289.526 59.4327 287.756 59.4327 286.183 58.2536C285.462 57.7295 284.544 57.4675 284.085 57.664C283.626 57.8605 282.774 57.664 282.315 57.2709C281.66 56.7469 281.266 56.6814 280.939 57.2054C280.414 58.1225 279.3 57.402 279.3 56.1573C279.3 55.5022 279.693 55.3057 280.545 55.5677C282.053 56.0263 285.396 54.7816 284.872 53.93C284.675 53.6025 281.988 53.2749 279.038 53.2749C271.958 53.2749 269.401 52.7509 269.008 51.1787C268.549 49.4754 266.32 49.672 266.058 51.4407ZM266.844 57.0744C266.844 59.4327 268.942 61.4635 270.843 60.9394C273.072 60.3498 274.121 61.0049 273.269 62.4461C271.826 64.7389 273.465 65.525 278.906 65.3285C283.299 65.1319 283.823 65.263 285.2 66.7041C287.232 68.8659 288.543 68.7349 289.92 66.3766C291.034 64.3458 293.984 63.6252 294.509 65.1319C294.705 65.7215 295.164 65.7215 296.213 65.1319C297 64.6734 297.918 64.5424 298.245 64.7389C299.294 65.3285 299.819 68.9969 298.966 69.9796C298.573 70.5036 298.442 71.2897 298.704 71.6828C299.032 72.2723 299.36 72.2068 299.884 71.4862C300.278 70.9622 301.13 70.3726 301.851 70.1106C303.031 69.652 303.031 69.5865 301.982 68.4074C301.195 67.5557 301.064 67.0317 301.589 66.7041C302.572 66.1146 304.211 66.7696 304.211 67.8178C304.211 68.2763 305.391 69.521 306.833 70.5691C310.635 73.386 310.242 76.7924 306.243 75.7443C305.194 75.4823 304.866 75.6788 304.866 76.5959C304.866 77.9716 306.899 83.7363 307.685 84.4569C308.603 85.374 308.144 88.977 306.833 91.0732C305.981 92.5144 305.719 93.8246 305.915 95.3313C306.44 98.5412 305.26 100.768 302.31 102.472C299.36 104.109 299.163 104.502 300.54 105.616C301.326 106.271 301.195 106.664 299.884 107.974C297.786 110.071 297.918 111.905 300.278 114.329C302.244 116.228 302.244 116.359 301.13 117.604C300.212 118.587 299.36 118.849 297.524 118.587C295.689 118.325 294.836 118.587 293.984 119.504C292.673 121.011 290.444 121.076 286.839 119.766C283.299 118.521 282.774 118.587 282.381 120.093C282.119 121.142 281.725 121.338 280.48 120.88C279.693 120.552 276.35 120.29 273.138 120.159C269.794 120.093 266.844 119.7 266.32 119.307C265.861 118.849 262.845 118.39 259.699 118.259C255.044 118.063 253.864 118.194 253.143 119.045C252.684 119.635 251.439 120.093 250.521 120.093C249.144 120.093 248.489 119.635 247.768 117.932C246.915 116.032 246.588 115.835 244.228 115.966C240.163 116.163 235.509 117.342 231.838 119.045C228.756 120.487 227.445 120.683 216.366 120.945C205.55 121.207 202.6 121.011 200.699 119.635C200.568 119.504 200.961 118.325 201.551 116.949C202.534 114.787 202.928 114.46 204.37 114.722C205.746 114.984 206.664 114.394 209.614 111.25C212.368 108.367 212.958 107.319 212.433 106.599C211.909 106.009 211.843 104.24 212.105 101.293C212.499 97.8861 212.958 96.4449 214.138 95.2658C214.99 94.4142 215.711 93.3005 215.711 92.842C215.711 92.3179 216.301 90.8112 217.022 89.501C217.743 88.1254 218.333 86.6187 218.333 86.1601C218.333 84.7189 221.086 78.8232 221.611 79.1507C221.873 79.2817 222.791 78.5612 223.578 77.513C224.43 76.3994 225.61 75.5478 226.265 75.5478C226.921 75.5478 227.642 75.2202 227.839 74.8927C228.035 74.4996 229.019 74.2376 230.002 74.2376C230.985 74.2376 232.886 73.517 234.263 72.5999C235.574 71.6828 237.016 71.0932 237.41 71.2897C237.738 71.5518 239.442 70.3726 241.146 68.6694L244.228 65.5905L250.324 65.394C255.306 65.263 256.486 65.394 256.945 66.2456C257.47 67.1627 257.798 67.0317 259.436 65.394C260.485 64.2803 261.862 63.1012 262.583 62.7081C263.632 62.053 263.763 61.791 263.108 61.0704C262.649 60.6119 262.255 59.3017 262.255 58.1225C262.255 55.9608 262.845 55.3712 265.402 55.3057C266.582 55.2402 266.844 55.5677 266.844 57.0744ZM324.009 62.9047C324.992 63.1012 326.172 63.6908 326.565 64.1493C326.959 64.6734 327.745 65.0664 328.27 65.0664C328.729 65.0664 329.319 65.4595 329.515 65.9835C329.712 66.5076 331.613 67.4902 333.711 68.2763C336.268 69.1935 338.038 70.3726 338.955 71.6173C339.742 72.6654 341.25 74.0411 342.299 74.6962C344.134 75.7443 348.002 80.4609 349.838 83.7363C350.231 84.4569 350.952 85.7016 351.411 86.4877C352.132 87.6013 352.198 88.1254 351.608 88.7149C351.083 89.239 350.624 88.9115 349.838 87.4048C349.248 86.2911 348.526 85.374 348.199 85.374C347.871 85.374 347.346 84.5879 346.953 83.5398C346.166 81.1815 339.742 74.8927 338.169 74.8927C337.448 74.8927 336.333 74.5651 335.546 74.1721C332.99 72.7964 333.645 74.2376 337.251 77.7751C340.463 80.985 340.922 81.7711 340.922 84.0639C340.922 85.505 341.25 86.6842 341.578 86.6842C341.971 86.6842 342.561 87.4703 342.954 88.4529C343.282 89.501 344.2 91.5318 344.986 93.104C346.232 95.7243 346.232 95.9864 345.249 97.1C344.2 98.2137 344.265 98.5412 346.166 102.275C347.215 104.437 348.133 106.599 348.133 107.057C348.133 107.581 349.051 109.285 350.1 110.857C351.28 112.625 352.066 114.591 352.066 115.901C352.066 117.08 352.525 118.456 352.984 118.98C354.951 120.88 352.46 137.781 350.362 137.322C349.641 137.126 348.985 132.999 348.133 123.369C347.478 114.918 346.298 111.774 342.561 108.367C341.315 107.254 340.135 106.337 340.004 106.337C339.808 106.337 340.463 107.712 341.446 109.416C344.986 115.508 347.215 126.251 345.249 127.889C344.724 128.348 344.069 129.658 343.806 130.771C343.413 132.802 339.021 142.366 338.562 142.366C338.431 142.366 337.71 141.777 336.923 140.991C335.678 139.746 335.546 138.763 335.35 128.61C335.284 122.583 335.022 117.342 334.825 117.015C334.235 116.097 335.678 108.695 336.858 106.664C337.775 105.158 337.906 104.109 337.448 102.079C337.185 100.637 336.726 98.3447 336.53 96.969C336.202 94.6107 336.268 94.5452 338.234 94.5452C340.791 94.5452 340.791 94.0211 338.3 90.3527C337.185 88.7149 335.94 86.4222 335.546 85.243C335.153 84.0639 333.908 81.7711 332.728 80.1334C330.958 77.513 329.122 74.1066 329.122 73.255C329.122 73.0584 329.712 72.9274 330.433 72.9274C331.154 72.9274 331.744 72.4689 331.744 71.9448C331.744 70.8312 328.532 69.0624 327.352 69.4555C326.893 69.652 326.172 68.9969 325.713 68.0143C324.73 65.918 320.862 63.8873 319.748 65.0009C318.895 65.8525 316.011 65.9835 316.011 65.1319C316.011 64.8044 315.159 64.4113 314.044 64.1493C312.995 63.9528 312.078 63.4942 312.078 63.1012C312.078 62.1186 313.585 62.3151 315.093 63.4287C316.863 64.7389 318.174 64.6079 319.158 63.0357C319.748 62.1186 320.403 61.8565 321.124 62.1186C321.714 62.3151 323.025 62.7081 324.009 62.9047ZM349.706 98.4102C350.1 98.9998 349.903 99.1963 349.116 98.9998C347.15 98.6722 346.429 96.838 347.478 94.7417L348.33 92.9075L348.789 95.2003C348.985 96.5104 349.444 97.9516 349.706 98.4102ZM280.939 150.882C282.315 151.931 283.168 152.848 282.905 152.848C282.643 152.848 283.233 153.765 284.151 154.878C286.249 157.368 286.249 157.957 284.216 158.874C282.25 159.792 282.119 160.447 283.889 161.364C284.61 161.757 285.724 163.132 286.38 164.508C287.363 166.539 287.888 166.997 290.379 167.39C294.246 168.046 299.229 170.6 299.491 171.976C299.622 172.697 299.098 173.417 298.049 173.876C296.869 174.4 296.344 175.317 296.016 177.151C295.754 178.592 295.23 179.706 294.705 179.706C294.246 179.706 293.525 180.099 293.132 180.623C292.673 181.147 290.838 181.868 288.936 182.326C287.035 182.719 284.216 183.637 282.578 184.292C280.939 184.947 278.185 185.667 276.481 185.929C274.645 186.257 273.138 186.846 272.941 187.371C272.154 189.401 274.645 195.363 277.005 197.131C278.841 198.507 279.3 199.293 279.3 201.062C279.3 203.682 278.579 203.879 276.874 201.782C276.219 200.931 274.842 200.014 273.859 199.752C271.368 199.162 269.466 197.393 269.466 195.69C269.466 194.904 269.008 193.921 268.418 193.397C267.893 192.939 266.779 191.367 266.058 189.925C265.336 188.484 264.091 186.453 263.37 185.471C261.796 183.375 260.879 173.679 262.19 172.893C262.649 172.631 264.419 173.941 266.516 176.038C269.86 179.51 271.302 180.296 272.285 179.247C272.81 178.723 271.433 176.496 269.139 174.203C265.926 170.993 267.565 168.111 272.089 168.897C274.186 169.225 275.104 169.094 276.088 168.177C277.661 166.735 277.661 166.08 275.891 164.181C274.645 162.805 274.58 162.543 275.366 160.971C276.284 159.398 276.153 159.202 272.81 156.254C270.056 153.83 269.401 152.848 269.532 151.537C269.794 149.9 270.319 149.703 277.399 149.048C277.989 148.983 279.562 149.769 280.939 150.882ZM345.576 157.433C347.74 161.757 347.871 162.477 347.084 169.421C346.756 172.893 346.822 173.352 348.395 174.793C349.903 176.169 350.755 178.396 349.706 178.396C348.789 178.396 341.643 171.518 340.922 169.945C340.529 169.028 339.152 166.67 337.841 164.77C335.743 161.626 335.612 161.036 336.005 158.088C336.464 154.551 337.579 153.175 339.48 153.765C340.201 154.027 341.053 153.765 341.578 153.175C342.626 151.865 342.954 152.193 345.576 157.433ZM204.173 159.136C205.156 161.626 202.534 164.836 200.502 163.591C199.584 163.001 199.912 160.578 201.092 159.267C202.403 157.826 203.649 157.761 204.173 159.136ZM342.233 173.81C344.396 175.972 347.478 181.999 347.478 184.095C347.478 185.209 347.019 186.453 346.494 186.912C345.97 187.371 345.511 188.157 345.511 188.746C345.511 189.598 345.314 189.532 344.396 188.484C343.216 187.24 342.692 186.257 340.791 181.671C340.07 179.903 339.676 174.072 340.201 172.631C340.398 172.238 341.053 172.631 342.233 173.81ZM237.344 191.432C237.344 192.939 235.771 196.083 235.115 195.887C234.46 195.625 234.001 192.349 234.525 191.301C234.919 190.646 237.344 190.711 237.344 191.432ZM248.948 192.611C249.341 193.725 247.964 196.083 246.915 196.083C246.391 196.083 245.342 197.131 244.621 198.441C243.834 199.686 242.851 200.669 242.458 200.538C241.409 200.145 239.966 193.07 240.753 192.284C241.605 191.432 248.685 191.76 248.948 192.611ZM258.978 192.742C260.223 195.101 259.633 196.804 255.962 202.437L252.225 208.071L250.98 206.499C249.538 204.599 249.734 201.913 251.766 197.721C254.585 191.825 257.404 189.925 258.978 192.742ZM293.591 209.381C298.18 215.539 300.081 220.19 298.442 221.238C298.114 221.435 296.869 220.583 295.689 219.339C292.87 216.391 292.214 216.456 292.673 219.47C293.198 222.811 292.345 225.693 290.51 226.61C289.658 227.069 289.33 227.462 289.658 227.593C289.985 227.789 290.116 229.689 289.854 232.44C289.461 236.174 289.264 236.698 288.871 235.257C288.609 234.275 287.953 233.161 287.429 232.702C286.314 231.785 286.249 229.361 287.232 228.379C287.822 227.789 287.298 226.807 285.265 224.383C281.856 220.321 281.856 219.535 285.069 220.059L287.494 220.387L288.543 216.915C289.199 214.884 289.526 212.264 289.33 210.626C289.002 207.678 289.395 205.909 290.313 205.909C290.641 205.909 292.149 207.482 293.591 209.381ZM243.9 214.425C244.686 214.95 244.621 215.081 243.441 215.081C242.654 215.081 241.802 214.753 241.605 214.425C241.081 213.574 242.589 213.574 243.9 214.425ZM321.518 222.68C321.78 223.924 321.78 225.234 321.518 225.627C320.862 226.676 318.633 222.549 318.633 220.19C318.633 218.225 318.699 218.225 319.879 219.273C320.534 219.928 321.321 221.435 321.518 222.68ZM333.973 222.221C334.498 223.007 333.776 224.907 332.99 224.907C332.662 224.907 332.4 224.186 332.4 223.269C332.4 221.631 333.318 221.042 333.973 222.221ZM285.2 237.681C283.758 239.384 283.233 238.729 284.413 236.698C285.2 235.323 285.593 235.061 285.724 235.781C285.855 236.305 285.593 237.157 285.2 237.681ZM314.831 241.677C315.618 243.38 315.093 245.214 313.585 245.673C312.733 246.001 311.881 242.856 312.405 241.218C312.995 239.515 313.913 239.646 314.831 241.677ZM285.986 251.438C285.855 252.158 285.659 253.993 285.593 255.434C285.396 258.316 282.971 262.509 281.66 262.05C281.266 261.919 280.873 260.871 280.742 259.692C280.545 257.923 280.349 257.727 279.562 258.382C279.038 258.775 278.644 259.495 278.644 259.954C278.644 260.412 278.251 261.133 277.726 261.526C277.268 261.919 276.678 263.95 276.415 265.981C276.088 268.928 276.219 270.239 277.136 271.876C278.382 274.169 277.858 276.134 275.956 276.527C274.449 276.789 272.548 271.811 272.941 268.601C273.072 267.094 272.81 263.557 272.22 260.74C271.695 257.923 271.368 255.565 271.499 255.434C271.63 255.303 274.121 253.993 277.005 252.486C282.84 249.472 286.38 249.079 285.986 251.438ZM267.5 271.614C267.5 273.449 266.975 274.104 264.55 275.61C257.798 279.999 253.405 285.371 255.569 286.747C255.831 286.878 257.535 285.568 259.24 283.799C262.059 280.916 262.714 280.523 264.812 280.72C267.041 280.916 267.172 281.047 266.975 282.882C266.844 283.93 266.189 285.633 265.533 286.55C264.353 288.188 263.501 290.743 262.386 295.983C261.862 298.604 261.862 298.604 259.043 298.407C257.404 298.342 255.765 298.604 255.175 299.062C252.422 301.355 245.866 298.997 245.866 295.656C245.866 294.673 246.26 293.691 246.784 293.494C247.309 293.298 248.095 290.808 248.751 287.205C250.062 280.196 251.373 276.658 252.815 276.658C253.34 276.658 255.503 275.283 257.535 273.514C260.748 270.894 261.796 270.37 264.419 270.239C267.238 270.173 267.5 270.304 267.5 271.614ZM206.074 301.355L206.468 306.727L204.96 306.072C203.518 305.417 201.944 302.272 201.944 299.979C201.944 298.407 204.566 294.739 205.222 295.459C205.484 295.721 205.878 298.407 206.074 301.355ZM391.4 301.421C391.4 302.862 389.302 304.237 388.056 303.517C387.335 303.058 387.466 302.862 388.45 302.469C389.171 302.207 390.023 301.617 390.285 301.093C391.006 299.914 391.4 300.045 391.4 301.421ZM211.122 307.906C211.122 309.282 210.925 309.478 210.532 308.823C210.204 308.299 210.073 307.513 210.27 306.989C210.794 305.613 211.122 306.006 211.122 307.906ZM375.666 312.819C375.666 313.212 372.061 317.143 367.669 321.466C360.72 328.345 359.146 330.31 356 336.009C352.656 342.167 352.198 342.691 349.706 343.411C347.281 344.132 346.756 344.067 344.79 342.887C343.544 342.101 341.905 341.512 341.184 341.512C340.398 341.512 339.414 341.053 338.955 340.529C338.496 340.005 337.775 339.546 337.382 339.546C336.989 339.546 335.874 339.153 334.891 338.629C333.908 338.105 332.138 337.516 330.958 337.254C329.778 336.992 328.532 336.533 328.139 336.271C327.811 336.009 326.238 335.55 324.73 335.288C323.156 335.026 321.78 334.568 321.583 334.306C320.993 333.323 322.763 330.31 323.681 330.637C324.14 330.834 325.123 330.441 325.844 329.72C326.565 329 327.418 328.41 327.745 328.41C329.253 328.41 330.433 326.183 330.433 323.497C330.433 320.68 330.433 320.68 333.121 320.221C334.956 319.894 336.399 320.025 337.513 320.615C338.89 321.401 339.218 321.401 339.48 320.68C340.332 317.994 345.38 315.767 352.394 314.981C354.23 314.784 359.671 314.064 364.522 313.409C375.666 311.902 375.666 311.902 375.666 312.819ZM388.122 323.169C388.122 323.497 387.729 323.824 387.204 323.824C386.68 323.824 386.024 323.497 385.828 323.169C385.631 322.776 386.024 322.514 386.745 322.514C387.532 322.514 388.122 322.776 388.122 323.169ZM118.689 325.397C118.689 326.576 118.23 327.951 117.705 328.41C117.181 328.869 116.722 329.655 116.722 330.179C116.722 330.703 116.46 330.965 116.198 330.768C115.345 330.244 115.345 325.069 116.132 324.086C117.509 322.449 118.689 323.038 118.689 325.397ZM129.309 325.462C130.423 326.969 130.423 327.034 128.456 329.065C126.49 330.965 126.359 331.03 125.179 329.982C123.54 328.541 123.605 327.231 125.375 325.331C127.145 323.431 127.866 323.431 129.309 325.462ZM110.166 327.689C111.215 329.786 110.953 330.048 107.938 330.113C105.774 330.179 105.119 329.917 105.315 329.262C105.446 328.803 105.709 327.951 105.905 327.427C106.299 325.986 109.314 326.183 110.166 327.689ZM88.402 333.127C88.2054 333.585 87.6809 333.978 87.222 333.978C86.7631 333.978 86.2387 333.585 86.1076 333.127C85.9109 332.668 86.3698 332.341 87.222 332.341C88.0743 332.341 88.5331 332.668 88.402 333.127ZM80.732 336.926C82.1743 338.367 82.6331 339.35 82.502 340.66C82.2398 343.018 81.4531 342.953 78.2409 340.267C76.4709 338.826 75.6187 337.581 75.6187 336.533C75.6187 334.24 78.3065 334.437 80.732 336.926ZM419.458 336.664C421.293 337.516 422.276 338.891 421.162 338.891C420.375 338.891 416.966 336.664 416.966 336.14C416.966 335.419 417.098 335.485 419.458 336.664ZM424.046 340.071C424.178 340.529 423.85 340.857 423.26 340.857C422.67 340.857 422.211 340.398 422.211 339.808C422.211 338.695 423.653 338.891 424.046 340.071ZM73.1276 342.822C72.9309 343.149 72.1443 343.477 71.4231 343.477C70.7676 343.477 70.1776 343.149 70.1776 342.822C70.1776 342.429 70.9643 342.167 71.882 342.167C72.7998 342.167 73.3898 342.429 73.1276 342.822ZM158.35 346.097C158.153 346.425 157.366 346.752 156.645 346.752C155.99 346.752 155.4 346.425 155.4 346.097C155.4 345.704 156.186 345.442 157.104 345.442C158.022 345.442 158.612 345.704 158.35 346.097ZM118.361 347.669C119.606 348.587 119.606 348.652 118.426 349.962C116.919 351.665 116.066 351.207 116.066 348.652C116.066 346.556 116.525 346.294 118.361 347.669ZM139.404 349.373C140.65 349.373 140.519 350.29 139.142 351.534C138.028 352.517 137.896 352.517 136.782 350.617C136.126 349.504 135.799 348.194 136.061 347.538C136.454 346.556 136.651 346.621 137.503 347.866C138.093 348.718 138.945 349.373 139.404 349.373ZM99.9398 349.438C99.3498 350.093 98.5631 350.683 98.2354 350.683C97.3831 350.683 97.6454 349.569 98.7598 348.456C100.202 346.949 101.316 347.932 99.9398 349.438ZM145.173 349.045C143.534 350.29 142.879 350.29 143.338 349.045C143.6 348.521 144.386 348.063 145.108 348.063C146.419 348.063 146.419 348.063 145.173 349.045ZM89.8443 356.055C89.8443 358.085 84.0098 364.44 82.2398 364.44C81.6498 364.44 81.322 363.654 81.322 362.081C81.322 359.002 82.3709 357.234 84.1409 357.234C84.9931 357.234 86.2387 356.775 86.9598 356.251C88.5331 355.072 89.8443 355.006 89.8443 356.055ZM101.644 362.54C101.644 362.867 101.054 363.129 100.333 363.129C98.8909 363.129 98.5631 362.081 99.8743 361.623C100.858 361.295 101.644 361.688 101.644 362.54ZM111.74 364.243C114.296 367.519 115.608 373.742 114.559 377.738C113.575 381.406 120.196 385.337 122.622 382.454C123.015 381.93 123.212 381.21 122.95 380.882C122.556 380.162 124.326 376.166 125.506 375.445C125.9 375.183 126.621 375.38 127.211 375.838C127.735 376.362 128.784 376.886 129.505 377.017C130.226 377.148 130.882 377.803 131.013 378.524C131.538 381.668 131.996 381.668 132.849 378.524C133.373 376.69 133.766 374.462 133.766 373.545C133.766 372.432 134.356 371.384 135.405 370.728C136.323 370.139 137.044 369.287 137.044 368.829C137.044 368.305 137.765 367.256 138.618 366.47C140.65 364.571 143.928 364.964 143.272 367.06C143.075 367.715 143.338 369.222 143.928 370.27C144.714 371.842 144.911 374.135 144.845 379.965C144.78 384.223 144.78 388.94 144.845 390.512C144.911 392.084 144.78 393.853 144.583 394.508C144.255 395.556 139.535 398.307 136.258 399.421C134.553 399.945 134.815 401.779 136.848 403.876L138.618 405.71H136.52C135.078 405.71 133.635 404.924 131.472 403.09C129.833 401.648 128.063 400.469 127.604 400.469C127.145 400.469 125.834 399.29 124.72 397.914C123.409 396.277 121.901 395.163 120.524 394.901C119.344 394.639 116.329 393.394 113.903 392.15C109.576 389.922 109.183 389.791 101.12 389.66C96.2031 389.529 91.2209 389.005 88.9265 388.416C84.4031 387.237 74.8976 382.782 74.5043 381.734C74.0454 380.555 74.8976 375.576 75.4876 375.576C75.8154 375.576 76.0776 376.035 76.0776 376.559C76.0776 377.083 76.3398 377.541 76.6676 377.541C77.782 377.541 78.1754 376.166 77.3231 375.183C76.3398 374.004 76.7331 373.545 79.4209 373.021C80.7976 372.759 81.912 371.973 82.5676 370.728C83.2231 369.615 84.5998 368.567 86.2387 367.977C89.582 366.798 89.4509 366.798 91.6143 368.632C92.5976 369.418 93.9087 370.139 94.4331 370.139C94.9576 370.139 95.8098 370.27 96.3343 370.401C96.9243 370.532 97.4487 370.008 97.7109 369.025C97.9076 368.108 98.6943 367.256 99.3498 367.125C100.071 366.994 101.185 366.339 101.841 365.684C102.496 365.029 103.48 364.44 104.135 364.44C104.725 364.374 105.971 363.981 106.889 363.457C109.249 362.081 110.101 362.278 111.74 364.243ZM170.478 383.044C170.478 383.568 170.215 384.223 169.822 384.42C169.494 384.616 169.166 384.223 169.166 383.503C169.166 382.716 169.494 382.127 169.822 382.127C170.215 382.127 170.478 382.52 170.478 383.044ZM479.244 392.477C479.244 393.132 479.638 394.18 480.162 394.901C480.621 395.622 481.211 396.997 481.473 397.98C482.129 400.731 480.031 400.338 478.851 397.521C477.802 394.967 477.605 390.381 478.589 390.971C478.982 391.167 479.244 391.888 479.244 392.477ZM59.9509 400.535C62.1798 401.845 63.622 404.465 63.622 407.348C63.622 408.068 64.0809 409.313 64.6054 410.033C65.6543 411.409 65.982 418.156 64.9331 418.156C64.212 418.156 62.3109 414.75 62.3109 413.374C62.3109 412.916 61.5898 411.802 60.672 410.951C59.7543 410.099 59.0987 409.051 59.2954 408.592C59.4265 408.199 59.0331 406.889 58.312 405.775C57.2631 404.007 56.542 399.159 57.3287 399.159C57.5254 399.159 58.7054 399.749 59.9509 400.535ZM148.975 400.273C149.959 400.6 151.204 403.352 150.876 404.662C150.811 404.924 151.532 406.168 152.45 407.348C153.368 408.592 153.892 409.968 153.695 410.558C153.171 411.868 150.549 411.933 149.5 410.623C149.041 410.099 147.664 409.64 146.419 409.64C145.173 409.64 143.6 409.313 142.879 408.985C141.436 408.134 141.174 406.365 142.616 406.365C143.206 406.365 143.928 404.989 144.649 402.697C145.501 399.749 145.894 399.159 146.746 399.487C147.402 399.749 148.32 400.076 148.975 400.273ZM494.912 427.328C495.568 428.572 496.485 430.931 496.879 432.568C497.272 434.206 498.059 436.957 498.649 438.792C499.173 440.56 499.632 442.919 499.567 443.901C499.567 444.884 499.96 446.194 500.484 446.718C501.205 447.373 501.337 448.552 501.074 450.78C500.812 453.269 501.009 454.383 502.123 456.151C502.844 457.396 503.5 459.361 503.5 460.475C503.5 461.523 503.762 462.702 504.155 463.095C504.483 463.423 505.073 465.781 505.401 468.27C505.729 470.825 506.384 474.166 506.778 475.804C507.892 480.324 509.007 491.329 508.875 496.046C508.81 498.339 509.203 501.68 509.728 503.448C510.908 507.444 510.514 508.558 507.958 508.558C503.107 508.558 499.632 503.776 500.419 498.142C500.615 496.373 500.353 494.343 499.567 492.377C497.928 487.792 495.961 468.86 496.879 465.519C497.665 462.637 497.665 456.544 496.944 454.448C496.617 453.728 496.682 452.614 497.075 451.959C497.534 451.107 497.403 450.518 496.551 449.535C495.568 448.421 495.568 448.028 496.289 446.653C496.879 445.539 496.944 444.818 496.485 444.229C495.633 443.181 494.912 439.25 494.781 434.534C494.715 432.306 494.191 430.145 493.535 429.096C492.224 427.197 491.962 424.445 493.077 424.838C493.47 424.969 494.257 426.083 494.912 427.328ZM182.146 458.641C182.278 459.754 182.081 460.737 181.688 460.737C180.901 460.737 180.639 460.278 180.049 457.92C179.655 456.348 179.786 456.086 180.77 456.282C181.556 456.413 182.015 457.199 182.146 458.641ZM195.192 459.23C195.454 459.885 196.175 460.802 196.831 461.261C197.486 461.72 198.011 462.571 198.011 463.095C198.011 463.619 198.208 464.012 198.535 464.012C199.125 464.012 200.83 466.633 200.436 467.026C200.043 467.419 198.011 466.567 198.011 466.043C198.011 465.781 196.831 464.274 195.389 462.768C193.946 461.261 192.766 459.623 192.766 459.099C192.766 457.724 194.668 457.855 195.192 459.23ZM180.835 467.812C178.934 472.266 175.919 474.232 172.772 473.184C170.478 472.463 169.888 471.611 171.068 470.956C171.395 470.76 171.526 469.974 171.33 469.253C171.068 468.139 171.33 467.943 172.903 467.943C174.083 467.943 175.394 467.353 176.312 466.371C177.623 464.995 178.082 464.864 179.655 465.454C181.425 466.043 181.491 466.24 180.835 467.812ZM165.889 469.908C166.61 470.367 166.348 470.563 164.774 470.563C163.594 470.563 162.611 470.236 162.611 469.908C162.611 469.056 164.578 469.056 165.889 469.908ZM89.8443 487.595C89.8443 487.923 89.3854 488.25 88.8609 488.25C88.3365 488.25 87.8776 487.923 87.8776 487.595C87.8776 487.202 88.3365 486.94 88.8609 486.94C89.3854 486.94 89.8443 487.202 89.8443 487.595ZM228.166 546.487C228.166 547.273 226.855 548.125 226.396 547.667C225.938 547.208 226.79 545.898 227.576 545.898C227.904 545.898 228.166 546.16 228.166 546.487Z" fill="url(#paint0_linear)"/>
<path d="M281.594 256.417C280.873 257.53 281.594 257.727 282.971 256.679C284.085 255.827 284.085 255.762 283.102 255.696C282.512 255.696 281.791 256.024 281.594 256.417Z" fill="url(#paint1_linear)"/>
<path d="M330.171 333.324C330.892 334.437 331.679 334.83 332.662 334.699C333.383 334.503 334.17 334.372 334.367 334.372C335.153 334.175 331.286 331.686 330.237 331.686C329.188 331.686 329.188 331.817 330.171 333.324Z" fill="url(#paint2_linear)"/>
<path d="M98.0389 373.611C97.8422 373.939 96.9244 374.266 96.0722 374.266C95.22 374.266 94.3022 374.528 94.1056 374.921C93.5811 375.708 93.7122 375.773 99.2189 375.904C102.234 375.97 103.546 375.773 103.414 375.315C103.283 374.921 102.497 374.659 101.71 374.725C100.923 374.856 100.137 374.463 99.94 373.939C99.4811 372.825 98.6289 372.629 98.0389 373.611Z" fill="url(#paint3_linear)"/>
<path d="M194.733 118.784C194.733 119.504 195.061 120.094 195.389 120.094C195.782 120.094 196.044 119.504 196.044 118.784C196.044 118.063 195.782 117.474 195.389 117.474C195.061 117.474 194.733 118.063 194.733 118.784Z" fill="url(#paint4_linear)"/>
<path d="M193.226 121.863C192.504 122.518 192.701 125.204 193.422 125.662C193.816 125.924 194.078 125.138 194.078 123.762C194.078 121.339 193.947 121.077 193.226 121.863Z" fill="url(#paint5_linear)"/>
<path d="M191.259 129.069C190.603 129.658 190.669 133.72 191.39 134.113C191.718 134.309 192.111 133.458 192.242 132.213C192.504 129.789 192.046 128.283 191.259 129.069Z" fill="url(#paint6_linear)"/>
<path d="M189.292 161.823C189.03 162.019 188.833 163.264 188.833 164.443C188.833 167.194 190.341 167.129 190.669 164.378C190.931 162.478 190.079 160.971 189.292 161.823Z" fill="url(#paint7_linear)"/>
<path d="M185.162 171.453C184.9 172.108 185.031 172.894 185.424 173.287C185.949 173.811 186.277 173.745 186.604 172.894C186.867 172.239 186.736 171.453 186.342 171.059C185.818 170.535 185.49 170.601 185.162 171.453Z" fill="url(#paint8_linear)"/>
<path d="M186.539 211.151C186.342 211.871 185.818 212.461 185.49 212.461C185.162 212.461 184.9 213.312 184.9 214.426C184.9 216.588 186.014 217.112 186.604 215.212C186.801 214.623 187.26 213.574 187.588 212.985C188.374 211.478 188.374 209.84 187.588 209.84C187.26 209.84 186.736 210.43 186.539 211.151Z" fill="url(#paint9_linear)"/>
<path d="M183.392 217.505C182.737 218.16 182.868 221.632 183.523 221.632C184.244 221.632 184.9 219.994 184.9 218.291C184.9 217.046 184.179 216.653 183.392 217.505Z" fill="url(#paint10_linear)"/>
<path d="M194.34 221.959C194.078 222.549 194.209 223.335 194.668 223.794C195.586 224.711 195.586 226.021 194.668 231.327C193.947 235.323 193.75 235.585 190.931 237.419C188.637 238.861 187.522 240.171 186.08 243.381C184.179 247.442 183.917 250.456 185.359 250.914C185.818 251.111 187.063 249.342 188.243 246.853C189.554 243.97 190.8 242.333 191.849 241.94C192.701 241.612 194.274 240.367 195.389 239.188C196.962 237.419 197.29 236.437 197.356 233.948C197.356 231.524 197.618 230.672 198.667 230.148C201.027 228.903 199.978 224.973 196.503 222.287C194.93 221.042 194.668 220.977 194.34 221.959Z" fill="url(#paint11_linear)"/>
<path d="M181.426 224.056C181.163 224.252 180.967 225.562 180.967 226.938C180.967 228.445 180.639 229.493 179.983 229.755C179.459 229.952 179 230.803 179 231.72C179 232.572 178.541 233.423 178.017 233.686C176.902 234.079 176.64 236.699 177.754 236.699C178.148 236.699 178.607 236.109 178.803 235.454C179 234.734 179.524 234.013 180.049 233.817C180.573 233.62 180.967 232.768 180.967 231.851C180.967 231 181.426 229.427 181.95 228.445C183.458 225.497 183.064 222.353 181.426 224.056Z" fill="url(#paint12_linear)"/>
<path d="M258.65 229.493C257.929 230.672 259.043 232.768 260.289 232.768C262.059 232.768 262.387 231.917 261.207 230.279C260.158 228.707 259.306 228.445 258.65 229.493Z" fill="url(#paint13_linear)"/>
<path d="M206.599 237.616C205.812 238.533 206.271 240.629 207.254 240.629C207.844 240.629 209.811 238.009 209.811 237.223C209.811 236.371 207.386 236.633 206.599 237.616Z" fill="url(#paint14_linear)"/>
<path d="M175.526 237.812C175.263 238.009 175.067 239.057 175.067 239.974C175.067 240.957 174.608 242.136 174.083 242.595C173.559 243.053 173.1 243.97 173.1 244.625C173.1 245.346 172.641 245.87 172.117 245.87C171.592 245.87 171.133 246.329 171.133 246.984C171.133 247.901 171.264 247.901 172.51 246.787C173.821 245.608 173.887 245.608 175.067 247.18C176.116 248.49 176.509 248.687 177.492 248.097C179.197 247.049 179.328 245.28 177.754 243.184C176.771 241.874 176.509 240.826 176.771 239.385C177.164 237.485 176.574 236.764 175.526 237.812Z" fill="url(#paint15_linear)"/>
<path d="M253.799 241.284C253.733 241.808 253.143 242.988 252.422 243.905C251.046 245.673 250.652 248.49 251.767 248.49C252.16 248.49 252.619 247.966 252.881 247.311C253.078 246.722 253.668 245.739 254.127 245.215C254.782 244.494 254.848 243.577 254.454 242.267C254.127 241.153 253.799 240.76 253.799 241.284Z" fill="url(#paint16_linear)"/>
<path d="M206.206 243.905C205.615 244.822 206.337 247.835 207.123 247.835C208.238 247.835 209.877 245.739 209.68 244.625C209.418 243.381 206.861 242.857 206.206 243.905Z" fill="url(#paint17_linear)"/>
<path d="M169.298 249.276C168.904 250.325 168.249 251.111 167.856 251.111C167.528 251.111 167.2 251.962 167.2 253.076C167.2 254.124 167.462 255.041 167.724 255.041C168.577 255.041 170.609 249.932 170.281 248.621C170.084 247.77 169.888 247.901 169.298 249.276Z" fill="url(#paint18_linear)"/>
<path d="M186.211 255.5C186.211 256.81 192.636 263.885 193.291 263.295C194.209 262.378 191.783 257.531 189.817 256.351C187.653 255.041 186.211 254.648 186.211 255.5Z" fill="url(#paint19_linear)"/>
<path d="M165.692 257.465C164.971 258.12 165.168 264.867 165.889 264.867C166.282 264.867 166.544 263.099 166.544 260.937C166.544 256.941 166.479 256.679 165.692 257.465Z" fill="url(#paint20_linear)"/>
<path d="M240.622 260.609C238.983 261.461 236.623 262.575 235.247 263.099C233.477 263.885 232.756 264.605 232.428 266.178C231.903 268.536 231.969 268.601 233.739 268.929C234.722 269.06 235.116 268.667 235.378 267.226C235.574 266.178 236.099 265.195 236.558 264.998C237.41 264.736 237.213 266.571 235.902 270.043C235.574 270.894 235.574 271.877 235.902 272.204C236.558 272.859 239.311 270.96 239.311 269.781C239.311 269.322 239.704 268.47 240.163 268.012C241.54 266.636 246.522 259.889 246.522 259.43C246.522 258.513 243.507 259.168 240.622 260.609Z" fill="url(#paint21_linear)"/>
<path d="M177.033 261.592C177.033 261.985 177.296 262.247 177.623 262.247C177.951 262.247 178.476 262.837 178.672 263.557C178.934 264.278 179.393 264.736 179.721 264.54C180.508 264.016 179.393 261.854 178.017 261.33C177.492 261.133 177.033 261.264 177.033 261.592Z" fill="url(#paint22_linear)"/>
<path d="M168.773 263.23C168.183 264.671 169.363 265.719 171.068 265.195C172.379 264.802 173.034 262.902 171.854 262.902C171.527 262.902 170.806 262.706 170.216 262.509C169.56 262.247 169.036 262.509 168.773 263.23Z" fill="url(#paint23_linear)"/>
<path d="M221.677 264.409C220.759 264.802 219.841 265.981 219.579 266.964C219.317 268.012 218.005 270.698 216.694 273.056C213.941 277.969 212.433 282.555 212.433 285.83L212.499 288.123L214.072 286.289C214.99 285.306 215.711 283.865 215.711 283.079C215.711 282.358 216.104 280.982 216.563 280.065C217.088 279.083 218.399 276.331 219.579 273.973C220.693 271.615 222.529 269.06 223.578 268.208C224.823 267.291 225.544 266.243 225.544 265.195C225.544 263.361 224.233 263.099 221.677 264.409Z" fill="url(#paint24_linear)"/>
<path d="M173.624 276.79C171.461 279.279 169.822 284.061 170.806 285.044C171.002 285.241 171.986 284.651 172.969 283.668C174.411 282.162 174.608 281.703 173.952 280.655C173.297 279.607 173.428 279.214 174.739 277.969C176.247 276.593 177.361 274.039 176.443 274.039C176.181 274.039 174.936 275.283 173.624 276.79Z" fill="url(#paint25_linear)"/>
<path d="M165.954 288.057C164.25 289.892 164.316 291.922 166.151 292.25C167.724 292.577 168.511 291.333 168.511 288.581C168.511 286.092 167.921 285.961 165.954 288.057Z" fill="url(#paint26_linear)"/>
<path d="M446.401 370.532C444.959 371.712 444.697 372.367 444.959 374.07C445.352 376.428 446.663 377.869 447.974 377.345C449.941 376.625 450.466 368.96 448.63 369.026C448.368 369.091 447.319 369.746 446.401 370.532Z" fill="url(#paint27_linear)"/>
<path d="M416.114 387.106C415.59 387.63 416.18 388.678 417.032 388.678C417.36 388.678 417.622 388.22 417.622 387.696C417.622 386.713 416.835 386.385 416.114 387.106Z" fill="url(#paint28_linear)"/>
<path d="M310.242 403.025C310.373 403.483 310.701 403.811 310.963 403.811C311.75 403.745 311.553 402.828 310.767 402.501C310.308 402.37 310.046 402.632 310.242 403.025Z" fill="url(#paint29_linear)"/>
<path d="M309.587 406.497C309.128 406.955 308.8 407.872 308.8 408.593C308.8 410.493 308.079 411.41 305.915 412.261C304.408 412.785 304.211 413.113 304.867 413.834C305.85 415.078 303.818 418.419 302.375 417.83C301.851 417.633 300.868 417.961 300.278 418.485C299.36 419.336 298.835 419.402 297.393 418.747C296.082 418.157 295.492 418.092 294.902 418.681C293.919 419.664 295.361 421.367 298.18 422.546C299.294 423.005 300.278 423.856 300.278 424.38C300.278 425.494 299.229 425.691 298.639 424.708C297.983 423.594 296.279 423.987 294.968 425.494C293.46 427.328 293.394 429.031 294.771 429.556C295.492 429.818 295.754 430.8 295.623 433.421C295.492 436.041 295.885 437.548 297.065 439.644C298.573 442.264 298.573 442.526 297.524 443.312C295.033 445.147 296.869 446.522 299.753 444.95C300.474 444.557 301.195 444.426 301.392 444.622C301.589 444.819 301.917 447.046 301.982 449.601C302.179 453.466 302.048 454.383 300.999 455.3C299.95 456.152 299.884 456.61 300.409 457.855C301.195 459.558 302.244 459.362 302.244 457.528C302.244 456.873 302.638 455.955 303.162 455.562C303.687 455.104 304.277 453.401 304.408 451.697C304.604 449.994 305.129 446.457 305.522 443.771C306.309 438.465 305.85 437.154 303.687 438.53C302.572 439.185 302.179 439.185 301.327 438.53C299.753 437.22 300.081 436.499 302.244 436.499C303.424 436.499 304.408 436.106 304.604 435.517C304.801 434.993 305.522 434.403 306.178 434.207C307.423 433.814 308.341 429.752 308.144 425.101C308.144 423.725 308.407 422.219 308.734 421.826C309.128 421.367 309.39 420.45 309.455 419.795C309.521 416.585 310.373 412.523 311.225 411.148C312.274 409.575 312.143 406.3 311.094 405.907C310.701 405.776 310.045 406.038 309.587 406.497ZM306.899 421.105C306.899 421.432 306.309 421.826 305.522 421.957C304.211 422.153 303.752 421.432 304.67 420.515C305.325 419.926 306.899 420.319 306.899 421.105ZM300.671 431.979C301.195 432.896 299.491 434.01 298.704 433.224C298.114 432.634 298.704 431.259 299.622 431.259C299.95 431.259 300.409 431.586 300.671 431.979Z" fill="url(#paint30_linear)"/>
<path d="M102.103 415.34C101.513 415.864 95.7444 416.847 91.8111 417.109C88.8611 417.24 85.2556 418.616 85.2556 419.467C85.2556 419.729 86.0422 420.515 87.0256 421.105C88.5989 422.153 89.1889 422.219 91.7456 421.498C93.3844 421.039 95.6133 420.253 96.7278 419.729C97.8422 419.205 100.464 418.55 102.562 418.288C106.889 417.764 107.807 416.847 105.25 415.668C103.283 414.751 102.693 414.685 102.103 415.34Z" fill="url(#paint31_linear)"/>
<path d="M124.589 417.502C124.589 417.83 125.048 418.157 125.572 418.157C126.097 418.157 126.556 417.83 126.556 417.502C126.556 417.109 126.097 416.847 125.572 416.847C125.048 416.847 124.589 417.109 124.589 417.502Z" fill="url(#paint32_linear)"/>
<path d="M112.986 425.363C110.953 426.215 111.084 427.132 113.444 428.311C114.559 428.9 115.28 429.686 115.018 430.014C114.428 430.997 106.823 430.145 102.3 428.638C99.2189 427.59 97.3834 427.459 90.8934 427.787L83.1578 428.18L78.5689 431.717C72.6689 436.303 63.36 439.382 61.9834 437.154C61.7867 436.761 61.1312 436.499 60.6067 436.499C59.0334 436.499 62.3111 442.068 64.9989 443.836C66.7034 444.95 67.2278 445.671 66.9656 446.522C66.7034 447.177 66.2445 447.701 65.9167 447.57C65.5889 447.505 65.13 447.898 64.8678 448.356C64.6711 448.88 64.0156 450.191 63.4256 451.304C60.8689 456.217 62.5078 473.905 66.6378 485.958C67.1623 487.465 67.5556 489.299 67.5556 490.151C67.5556 491.068 67.9489 493.23 68.4734 495.064C69.9811 500.239 70.9645 506.331 71.4889 513.144C71.7511 516.551 72.4067 520.809 73.0623 522.512C73.6523 524.215 74.1111 526.966 74.1111 528.539C74.1111 530.176 74.5045 532.6 75.0289 533.91C75.5534 535.286 76.1434 537.448 76.34 538.692C76.5367 539.937 77.1267 543.212 77.7167 545.898C78.3067 548.584 78.8967 551.991 78.9623 553.432C79.0934 554.873 79.2245 556.707 79.2245 557.493C79.3556 558.869 79.6834 559 82.6334 559C85.7145 559 86.7634 558.279 85.2556 557.362C83.42 556.249 82.1745 550.025 81.5845 539.02C80.9289 527.818 79.3556 510.589 78.7656 508.886C78.4378 507.772 78.11 504.694 78.11 501.877C78.0445 496.44 75.9467 488.316 75.0945 490.347C74.8323 491.002 74.8978 492.378 75.2911 493.426C75.6845 494.409 75.75 496.308 75.4878 497.488L75.0289 499.715L73.8489 497.553C73.2589 496.374 72.5378 493.885 72.4067 491.985C72.21 490.085 71.62 487.661 71.0956 486.482C70.5711 485.303 70.1778 483.272 70.2434 481.897C70.3089 480.521 70.0467 478.294 69.6534 476.918C68.9978 474.56 69.0634 474.494 70.3745 474.887C74.3734 476.066 74.57 476.459 74.7011 485.172C74.7667 487.858 75.4223 488.579 76.5367 487.006C77.1923 485.958 77.3234 484.648 76.9956 481.7C76.4711 476.918 77.1923 475.804 80.6667 475.804C82.83 475.804 84.5345 475.215 90.8278 472.529C93.1222 471.546 96.9245 471.153 97.3834 471.874C98.0389 472.922 99.4811 472.594 99.8745 471.284C100.071 470.367 101.054 469.909 103.677 469.581C105.643 469.319 108.856 468.205 110.888 467.157C114.559 465.323 114.756 465.258 122.032 465.651C126.162 465.913 130.817 466.502 132.456 467.026C136.52 468.402 139.601 467.419 139.667 464.864C139.667 464.406 138.618 463.489 137.241 462.899C135.93 462.244 134.684 461.262 134.422 460.737C132.718 457.003 133.111 457.134 125.113 456.807C118.296 456.479 117.378 456.348 115.346 454.776C111.478 451.828 103.611 451.894 103.611 454.842C103.611 456.021 102.431 456.348 89.32 458.772C85.5834 459.493 82.1745 460.279 81.65 460.541C81.1911 460.868 79.6834 462.441 78.3723 464.144C75.8811 467.485 72.5378 469.712 71.8167 468.598C71.62 468.205 71.8823 467.747 72.4067 467.55C74.3734 466.83 73.5867 465.323 71.2923 465.323C70.0467 465.323 68.8667 465.127 68.67 464.864C67.8178 464.013 69.7189 462.703 71.8167 462.703C72.9967 462.703 74.6356 462.179 75.4878 461.524C77.0611 460.213 77.0611 460.475 74.7667 450.715C73.7178 446.391 74.3078 444.36 76.6023 444.295C79.1589 444.164 80.6011 443.902 84.01 443.116C85.6489 442.723 92.1389 442.395 98.4322 442.395C107.086 442.33 110.363 442.068 111.937 441.347C113.772 440.43 114.166 440.43 116.001 441.347C117.116 441.937 119.607 442.395 121.836 442.395C123.999 442.395 126.818 442.854 128.063 443.378C129.374 443.902 131.538 444.36 132.783 444.36C134.094 444.36 135.668 444.622 136.258 444.95C136.848 445.212 138.487 445.671 139.798 445.933C141.764 446.26 142.486 446.129 143.6 445.015C145.436 443.181 145.042 442.264 141.764 441.281C138.421 440.364 134.422 437.416 134.422 435.844C134.422 434.141 132.521 432.765 128.391 431.586C125.966 430.931 124.327 430.014 123.671 428.966C123.081 428.049 121.967 427.328 121.246 427.328C120.524 427.328 119.279 426.935 118.492 426.411C116.329 425.035 114.624 424.708 112.986 425.363ZM71.4889 458.707C71.4889 460.344 69.7189 461.851 68.8011 460.934C68.2767 460.41 68.3423 459.82 68.8011 458.838C69.7189 457.134 71.4889 457.003 71.4889 458.707Z" fill="url(#paint33_linear)"/>
<path d="M369.504 432.896C369.242 434.6 369.308 436.303 369.701 436.958C370.225 437.875 370.357 437.154 370.422 434.01C370.422 431.783 370.291 429.949 370.16 429.949C370.029 429.949 369.701 431.259 369.504 432.896Z" fill="url(#paint34_linear)"/>
<path d="M288.478 438.137C288.478 439.709 288.805 440.43 289.395 440.43C290.838 440.43 291.165 439.447 290.444 437.547C289.527 435.124 288.478 435.451 288.478 438.137Z" fill="url(#paint35_linear)"/>
<path d="M363.867 442.854C363.867 446.326 363.998 449.011 364.194 448.815C364.784 448.225 365.047 436.499 364.457 436.499C364.129 436.499 363.867 439.382 363.867 442.854Z" fill="url(#paint36_linear)"/>
<path d="M357.377 449.929C356.524 456.217 355.279 460.737 353.247 465.126C352.526 466.633 351.936 468.86 351.936 470.04C351.936 471.219 351.477 472.66 350.952 473.25C350.493 473.839 350.1 475.346 350.231 476.59C350.297 477.77 350.1 479.145 349.838 479.604C349.576 480.062 349.248 482.814 349.182 485.762C349.051 490.282 348.789 491.199 347.609 492.116C346.232 493.099 346.167 493.426 346.822 497.095C347.216 499.256 347.674 501.68 347.806 502.532C348.068 503.449 347.871 503.907 347.347 503.842C346.888 503.711 346.494 504.104 346.494 504.628C346.429 505.152 346.167 506.135 345.904 506.79C345.052 508.559 345.97 508.952 347.674 507.445C348.461 506.724 349.51 506.004 350.034 505.807C351.28 505.414 353.902 497.815 353.509 495.653C353.247 494.343 353.574 493.557 354.82 492.574C356.459 491.199 359.933 481.7 359.933 478.621C359.933 477.835 360.261 476.984 360.589 476.787C360.982 476.59 361.244 475.542 361.244 474.494C361.244 473.512 361.834 470.826 362.556 468.533C363.211 466.24 363.867 462.506 363.932 460.279C364.063 457.003 364.26 456.217 365.243 455.955C367.144 455.431 370.357 446.784 368.98 445.933C368.062 445.343 367.144 446.981 367.144 449.273C367.144 450.78 366.685 451.435 365.374 452.025C364.391 452.483 363.211 452.876 362.752 452.876C362.293 452.876 361.769 453.663 361.507 454.645C360.851 457.724 360.589 458.183 359.933 457.79C359.606 457.593 359.212 455.235 359.212 452.68C359.147 450.06 358.95 447.046 358.688 445.998C358.294 444.426 358.032 445.212 357.377 449.929ZM359.671 466.044C359.081 467.943 358.622 470.367 358.622 471.415C358.622 472.529 358.491 473.25 358.229 473.053C357.377 472.136 357.967 464.864 359.081 462.703C360.654 459.558 360.982 461.524 359.671 466.044Z" fill="url(#paint37_linear)"/>
<path d="M314.11 456.414C313.717 456.872 313.258 458.117 313.127 459.165C312.995 460.213 312.078 463.489 311.16 466.437C309.587 471.219 309.521 472.136 310.177 474.756C311.029 478.097 311.815 478.425 315.29 476.722C318.83 474.953 319.551 472.332 318.699 463.882C318.305 459.951 317.847 456.479 317.65 456.086C317.06 455.235 314.962 455.366 314.11 456.414Z" fill="url(#paint38_linear)"/>
<path d="M88.5989 479.735C87.4845 480.849 86.5667 482.093 86.5667 482.421C86.5667 483.207 86.5667 483.207 89.7789 481.635C91.6145 480.783 92.4667 479.931 92.3356 479.276C92.0078 477.442 90.7622 477.639 88.5989 479.735Z" fill="url(#paint39_linear)"/>
</g>
</g>
<defs>
<linearGradient id="paint0_linear" x1="238.048" y1="558.999" x2="238.048" y2="50.002" gradientUnits="userSpaceOnUse">
<stop stop-color="#C03A83"/>
<stop offset="0.494792" stop-color="#EF2D50"/>
</linearGradient>
<linearGradient id="paint1_linear" x1="282.567" y1="257.368" x2="282.567" y2="255.696" gradientUnits="userSpaceOnUse">
<stop stop-color="#C03A83"/>
<stop offset="0.494792" stop-color="#EF2D50"/>
</linearGradient>
<linearGradient id="paint2_linear" x1="331.956" y1="334.724" x2="331.956" y2="331.686" gradientUnits="userSpaceOnUse">
<stop stop-color="#C03A83"/>
<stop offset="0.494792" stop-color="#EF2D50"/>
</linearGradient>
<linearGradient id="paint3_linear" x1="98.6641" y1="375.916" x2="98.6641" y2="372.977" gradientUnits="userSpaceOnUse">
<stop stop-color="#C03A83"/>
<stop offset="0.494792" stop-color="#EF2D50"/>
</linearGradient>
<linearGradient id="paint4_linear" x1="195.389" y1="120.094" x2="195.389" y2="117.474" gradientUnits="userSpaceOnUse">
<stop stop-color="#C03A83"/>
<stop offset="0.494792" stop-color="#EF2D50"/>
</linearGradient>
<linearGradient id="paint5_linear" x1="193.425" y1="125.712" x2="193.425" y2="121.466" gradientUnits="userSpaceOnUse">
<stop stop-color="#C03A83"/>
<stop offset="0.494792" stop-color="#EF2D50"/>
</linearGradient>
<linearGradient id="paint6_linear" x1="191.561" y1="134.141" x2="191.561" y2="128.859" gradientUnits="userSpaceOnUse">
<stop stop-color="#C03A83"/>
<stop offset="0.494792" stop-color="#EF2D50"/>
</linearGradient>
<linearGradient id="paint7_linear" x1="189.775" y1="166.474" x2="189.775" y2="161.579" gradientUnits="userSpaceOnUse">
<stop stop-color="#C03A83"/>
<stop offset="0.494792" stop-color="#EF2D50"/>
</linearGradient>
<linearGradient id="paint8_linear" x1="185.883" y1="173.621" x2="185.883" y2="170.726" gradientUnits="userSpaceOnUse">
<stop stop-color="#C03A83"/>
<stop offset="0.494792" stop-color="#EF2D50"/>
</linearGradient>
<linearGradient id="paint9_linear" x1="186.539" y1="216.381" x2="186.539" y2="209.84" gradientUnits="userSpaceOnUse">
<stop stop-color="#C03A83"/>
<stop offset="0.494792" stop-color="#EF2D50"/>
</linearGradient>
<linearGradient id="paint10_linear" x1="183.931" y1="221.632" x2="183.931" y2="217.051" gradientUnits="userSpaceOnUse">
<stop stop-color="#C03A83"/>
<stop offset="0.494792" stop-color="#EF2D50"/>
</linearGradient>
<linearGradient id="paint11_linear" x1="192.187" y1="250.929" x2="192.187" y2="221.282" gradientUnits="userSpaceOnUse">
<stop stop-color="#C03A83"/>
<stop offset="0.494792" stop-color="#EF2D50"/>
</linearGradient>
<linearGradient id="paint12_linear" x1="179.965" y1="236.699" x2="179.965" y2="223.575" gradientUnits="userSpaceOnUse">
<stop stop-color="#C03A83"/>
<stop offset="0.494792" stop-color="#EF2D50"/>
</linearGradient>
<linearGradient id="paint13_linear" x1="260.163" y1="232.768" x2="260.163" y2="228.864" gradientUnits="userSpaceOnUse">
<stop stop-color="#C03A83"/>
<stop offset="0.494792" stop-color="#EF2D50"/>
</linearGradient>
<linearGradient id="paint14_linear" x1="208.005" y1="240.629" x2="208.005" y2="236.71" gradientUnits="userSpaceOnUse">
<stop stop-color="#C03A83"/>
<stop offset="0.494792" stop-color="#EF2D50"/>
</linearGradient>
<linearGradient id="paint15_linear" x1="174.995" y1="248.413" x2="174.995" y2="237.33" gradientUnits="userSpaceOnUse">
<stop stop-color="#C03A83"/>
<stop offset="0.494792" stop-color="#EF2D50"/>
</linearGradient>
<linearGradient id="paint16_linear" x1="252.909" y1="248.49" x2="252.909" y2="241.055" gradientUnits="userSpaceOnUse">
<stop stop-color="#C03A83"/>
<stop offset="0.494792" stop-color="#EF2D50"/>
</linearGradient>
<linearGradient id="paint17_linear" x1="207.843" y1="247.835" x2="207.843" y2="243.344" gradientUnits="userSpaceOnUse">
<stop stop-color="#C03A83"/>
<stop offset="0.494792" stop-color="#EF2D50"/>
</linearGradient>
<linearGradient id="paint18_linear" x1="168.758" y1="255.041" x2="168.758" y2="248.087" gradientUnits="userSpaceOnUse">
<stop stop-color="#C03A83"/>
<stop offset="0.494792" stop-color="#EF2D50"/>
</linearGradient>
<linearGradient id="paint19_linear" x1="189.851" y1="263.33" x2="189.851" y2="255.049" gradientUnits="userSpaceOnUse">
<stop stop-color="#C03A83"/>
<stop offset="0.494792" stop-color="#EF2D50"/>
</linearGradient>
<linearGradient id="paint20_linear" x1="165.892" y1="264.867" x2="165.892" y2="257.11" gradientUnits="userSpaceOnUse">
<stop stop-color="#C03A83"/>
<stop offset="0.494792" stop-color="#EF2D50"/>
</linearGradient>
<linearGradient id="paint21_linear" x1="239.332" y1="272.338" x2="239.332" y2="259.007" gradientUnits="userSpaceOnUse">
<stop stop-color="#C03A83"/>
<stop offset="0.494792" stop-color="#EF2D50"/>
</linearGradient>
<linearGradient id="paint22_linear" x1="178.508" y1="264.586" x2="178.508" y2="261.238" gradientUnits="userSpaceOnUse">
<stop stop-color="#C03A83"/>
<stop offset="0.494792" stop-color="#EF2D50"/>
</linearGradient>
<linearGradient id="paint23_linear" x1="170.545" y1="265.332" x2="170.545" y2="262.41" gradientUnits="userSpaceOnUse">
<stop stop-color="#C03A83"/>
<stop offset="0.494792" stop-color="#EF2D50"/>
</linearGradient>
<linearGradient id="paint24_linear" x1="218.989" y1="288.123" x2="218.989" y2="263.59" gradientUnits="userSpaceOnUse">
<stop stop-color="#C03A83"/>
<stop offset="0.494792" stop-color="#EF2D50"/>
</linearGradient>
<linearGradient id="paint25_linear" x1="173.645" y1="285.082" x2="173.645" y2="274.039" gradientUnits="userSpaceOnUse">
<stop stop-color="#C03A83"/>
<stop offset="0.494792" stop-color="#EF2D50"/>
</linearGradient>
<linearGradient id="paint26_linear" x1="166.617" y1="292.301" x2="166.617" y2="286.591" gradientUnits="userSpaceOnUse">
<stop stop-color="#C03A83"/>
<stop offset="0.494792" stop-color="#EF2D50"/>
</linearGradient>
<linearGradient id="paint27_linear" x1="447.315" y1="377.453" x2="447.315" y2="369.025" gradientUnits="userSpaceOnUse">
<stop stop-color="#C03A83"/>
<stop offset="0.494792" stop-color="#EF2D50"/>
</linearGradient>
<linearGradient id="paint28_linear" x1="416.769" y1="388.678" x2="416.769" y2="386.717" gradientUnits="userSpaceOnUse">
<stop stop-color="#C03A83"/>
<stop offset="0.494792" stop-color="#EF2D50"/>
</linearGradient>
<linearGradient id="paint29_linear" x1="310.82" y1="403.811" x2="310.82" y2="402.466" gradientUnits="userSpaceOnUse">
<stop stop-color="#C03A83"/>
<stop offset="0.494792" stop-color="#EF2D50"/>
</linearGradient>
<linearGradient id="paint30_linear" x1="302.868" y1="459.025" x2="302.868" y2="405.873" gradientUnits="userSpaceOnUse">
<stop stop-color="#C03A83"/>
<stop offset="0.494792" stop-color="#EF2D50"/>
</linearGradient>
<linearGradient id="paint31_linear" x1="95.9599" y1="421.976" x2="95.9599" y2="414.905" gradientUnits="userSpaceOnUse">
<stop stop-color="#C03A83"/>
<stop offset="0.494792" stop-color="#EF2D50"/>
</linearGradient>
<linearGradient id="paint32_linear" x1="125.572" y1="418.157" x2="125.572" y2="416.847" gradientUnits="userSpaceOnUse">
<stop stop-color="#C03A83"/>
<stop offset="0.494792" stop-color="#EF2D50"/>
</linearGradient>
<linearGradient id="paint33_linear" x1="102.444" y1="559" x2="102.444" y2="425.038" gradientUnits="userSpaceOnUse">
<stop stop-color="#C03A83"/>
<stop offset="0.494792" stop-color="#EF2D50"/>
</linearGradient>
<linearGradient id="paint34_linear" x1="369.885" y1="437.327" x2="369.885" y2="429.949" gradientUnits="userSpaceOnUse">
<stop stop-color="#C03A83"/>
<stop offset="0.494792" stop-color="#EF2D50"/>
</linearGradient>
<linearGradient id="paint35_linear" x1="289.646" y1="440.43" x2="289.646" y2="435.911" gradientUnits="userSpaceOnUse">
<stop stop-color="#C03A83"/>
<stop offset="0.494792" stop-color="#EF2D50"/>
</linearGradient>
<linearGradient id="paint36_linear" x1="364.328" y1="448.825" x2="364.328" y2="436.499" gradientUnits="userSpaceOnUse">
<stop stop-color="#C03A83"/>
<stop offset="0.494792" stop-color="#EF2D50"/>
</linearGradient>
<linearGradient id="paint37_linear" x1="357.447" y1="508.377" x2="357.447" y2="445.262" gradientUnits="userSpaceOnUse">
<stop stop-color="#C03A83"/>
<stop offset="0.494792" stop-color="#EF2D50"/>
</linearGradient>
<linearGradient id="paint38_linear" x1="314.404" y1="477.73" x2="314.404" y2="455.527" gradientUnits="userSpaceOnUse">
<stop stop-color="#C03A83"/>
<stop offset="0.494792" stop-color="#EF2D50"/>
</linearGradient>
<linearGradient id="paint39_linear" x1="89.4577" y1="482.937" x2="89.4577" y2="478.021" gradientUnits="userSpaceOnUse">
<stop stop-color="#C03A83"/>
<stop offset="0.494792" stop-color="#EF2D50"/>
</linearGradient>
<clipPath id="clip0">
<rect width="500" height="500" fill="white"/>
</clipPath>
<clipPath id="clip1">
<rect width="590" height="509" fill="white" transform="translate(-57 50)"/>
</clipPath>
</defs>
</svg>
